<svg width="92" height="91" viewBox="0 0 92 91" fill="none" xmlns="http://www.w3.org/2000/svg">
<path d="M20 0H74V69.884L47 91L20 69.884V0Z" fill="#EEEEEE"/>
<path d="M20 1H74V30.5239H72L72 80.6895L47 87.5L22 80.6895L22 30.5239H20V1Z" fill="#D9D9D9"/>
<rect x="74" y="21" width="1" height="44" fill="#D9D9D9"/>
<rect x="19" y="21" width="1" height="44" fill="#D9D9D9"/>
<path d="M13.5947 52.8987L16.3187 52.1689L16.3381 52.2413L15.5991 52.4393L15.6768 52.7291L14.5032 53.0436L14.5808 53.3333L14.4794 53.3605L14.4988 53.433L14.6292 53.398L14.7069 53.6878L13.91 53.9013L13.9294 53.9738C13.9397 54.0124 13.9453 54.0523 13.946 54.0936C13.9537 54.1225 13.9628 54.1563 13.9731 54.195L14.5527 54.0397C14.563 54.0783 14.5686 54.1183 14.5693 54.1595C14.577 54.1885 14.5861 54.2223 14.5964 54.2609L14.2922 54.3424L14.3263 54.6439L14.5582 54.5817C14.5537 54.6036 14.5553 54.6291 14.5631 54.6581C14.5709 54.687 14.5725 54.7125 14.568 54.7344L14.7419 54.6878C14.7452 54.7387 14.7484 54.7896 14.7517 54.8405C14.755 54.8913 14.7583 54.9422 14.7616 54.9931L14.7761 54.9892C14.7793 55.0401 14.7826 55.091 14.7859 55.1419C14.7892 55.1928 14.7876 55.2449 14.7813 55.2984L14.8392 55.2829C14.8418 55.2926 14.8386 55.3193 14.8296 55.3631L14.9021 55.3437C14.8957 55.3972 14.8893 55.4506 14.883 55.5041C14.8766 55.5576 14.8702 55.6111 14.8638 55.6645L14.8204 55.6762L14.7627 55.9246L14.7337 55.9323L14.6615 56.1846L14.705 56.173C14.6864 56.2194 14.6678 56.2658 14.6491 56.3122C14.6279 56.3489 14.6128 56.3892 14.6039 56.433L14.43 56.4796C14.4069 56.5479 14.3812 56.6065 14.3529 56.6555L14.2225 56.6905L14.0634 56.966L14.0924 56.9583L14.0249 57.054L13.0686 57.3102L13.0011 57.406L13.088 57.3827L12.9385 57.578L13.8223 57.3412L13.7258 57.4447L14.4647 57.2467C14.3907 57.3183 14.3167 57.3899 14.2428 57.4615C14.1688 57.5331 14.0899 57.606 14.0063 57.6802L13.7165 57.7578C13.6901 57.7752 13.6637 57.7926 13.6373 57.8101C13.611 57.8275 13.5859 57.8497 13.5621 57.8768L14.1271 57.7254C14.0911 57.7454 14.0599 57.7642 14.0335 57.7816C14.0071 57.799 13.982 57.8213 13.9582 57.8483L12.0456 58.3608C11.9858 58.4079 11.9163 58.4576 11.8371 58.5098C11.765 58.5499 11.6881 58.5912 11.6063 58.6338L13.0697 58.2417C12.9519 58.3043 12.828 58.3634 12.6979 58.419C12.5801 58.4816 12.4562 58.5407 12.3261 58.5962L10.573 59.066C10.4236 59.1267 10.2633 59.1852 10.092 59.2414C9.93039 59.2951 9.76747 59.3439 9.60327 59.3879C9.4294 59.4345 9.25907 59.475 9.09227 59.5093C8.92548 59.5437 8.75739 59.5732 8.588 59.5979L10.3412 59.1281C10.2008 59.145 10.0591 59.1571 9.91606 59.1644C9.78531 59.1787 9.65327 59.1882 9.51994 59.1929L8.05656 59.585C7.96445 59.5889 7.87717 59.5916 7.79472 59.593C7.70968 59.5847 7.62464 59.5765 7.5396 59.5682L9.43765 59.0596C9.40349 59.0481 9.3658 59.0426 9.32458 59.0433C9.29301 59.0414 9.26145 59.0395 9.22988 59.0376L8.66481 59.189L8.48602 59.1593L8.79029 59.0778C8.68076 59.0554 8.57605 59.0317 8.47618 59.0067C8.37631 58.9816 8.27643 58.9566 8.17656 58.9316L7.45211 59.1258C7.42762 59.1116 7.40442 59.1023 7.38251 59.0978C7.37026 59.0907 7.35319 59.085 7.33128 59.0805L6.44746 59.3173C6.40364 59.3083 6.36337 59.2933 6.32662 59.272C6.28988 59.2508 6.25443 59.2344 6.22028 59.2229L6.13335 59.2462L6.027 59.197L6.98327 58.9408L6.87692 58.8917L6.86243 58.8955L6.58687 58.7364L6.73175 58.6976L6.56253 58.5877L6.72191 58.545L6.51879 58.3664L6.47532 58.3781L6.28669 58.1957L6.31566 58.1879C6.28599 58.1545 6.25761 58.1258 6.23053 58.102C6.21052 58.066 6.18568 58.0312 6.15601 57.9978L6.18498 57.99C6.15272 57.9469 6.12047 57.9038 6.08821 57.8607C6.05595 57.8175 6.02369 57.7744 5.99143 57.7313L5.93347 57.7468L5.88508 57.6821L5.82713 57.6977C5.7652 57.6211 5.71034 57.5323 5.66255 57.4312L5.63357 57.439C5.61097 57.3932 5.58837 57.3475 5.56577 57.3018C5.54317 57.2561 5.52057 57.2104 5.49797 57.1647L5.57041 57.1453C5.55558 57.1286 5.54428 57.1057 5.53651 57.0767C5.52875 57.0478 5.51745 57.0249 5.50261 57.0082L5.60404 56.981L5.49741 56.699L5.52639 56.6912C5.50638 56.6552 5.49249 56.6227 5.48472 56.5937C5.47437 56.555 5.46402 56.5164 5.45367 56.4778L5.33776 56.5088L5.26011 56.219L4.6226 56.3899L4.54495 56.1001L4.00886 56.2437L3.98945 56.1713L4.4531 56.0471L4.37545 55.7573L5.59252 55.4312L5.51487 55.1414L7.00723 54.7415L6.98782 54.6691L5.81422 54.9835L5.75598 54.7662L5.3358 54.8788L5.27757 54.6615L4.77046 54.7973L4.71222 54.58L4.10369 54.7431L4.02605 54.4533L4.63458 54.2902L4.4987 53.7831L4.65808 53.7404L4.61925 53.5955L4.6917 53.5761L4.67229 53.5037L4.71575 53.492L4.63811 53.2022L4.50771 53.2372L4.46888 53.0923L4.54133 53.0729L4.52192 53.0004L4.30458 53.0587L4.22694 52.7689L4.06756 52.8116L4.02874 52.6667L2.91309 52.9656L2.87427 52.8208L1.57027 53.1702L1.53145 53.0253L5.09571 52.0702L5.0763 51.9978L4.01861 52.2812L3.94097 51.9914L4.18728 51.9254L4.14846 51.7805L3.98908 51.8232L3.93084 51.6059L5.51013 51.1827L5.43249 50.8929L3.0708 51.5258L3.05139 51.4533L4.67414 51.0185L4.63532 50.8736L3.83843 51.0871L3.79961 50.9422L3.46636 51.0315L3.42754 50.8867L4.49972 50.5994L4.42207 50.3096L3.78456 50.4804L3.76515 50.408L3.73617 50.4157L3.72064 50.3578C3.69994 50.2805 3.69536 50.2248 3.70692 50.1906L3.61998 50.2139C3.64619 50.0413 3.74622 49.9316 3.92009 49.885L6.75991 49.1241C6.92412 49.0801 7.06073 49.1263 7.16976 49.2628L7.25669 49.2395C7.29602 49.2703 7.32475 49.3196 7.34287 49.3872L7.3584 49.4452L7.38737 49.4374L7.40678 49.5098L8.0443 49.339L8.12194 49.6288L7.04976 49.9161L7.08859 50.061L7.42183 49.9717L7.46065 50.1166L8.25754 49.903L8.29636 50.0479L6.67361 50.4827L6.69302 50.5552L9.05471 49.9224L9.13236 50.2122L7.55307 50.6353L7.6113 50.8527L7.77068 50.81L7.8095 50.9548L7.56319 51.0208L7.64084 51.3106L9.85764 50.7166L9.77999 50.4268L9.91039 50.3919L9.87157 50.247L10.5525 50.0646L10.4943 49.8472L11.6244 49.5444L11.5468 49.2546L10.3297 49.5807L10.3103 49.5083L9.35405 49.7645L9.31523 49.6196L9.53256 49.5614L9.49374 49.4165L10.6384 49.1098L10.5995 48.9649L9.90407 49.1513L9.82643 48.8615L9.50767 48.9469L9.48826 48.8745L9.18399 48.956L9.16847 48.898C9.14776 48.8208 9.14318 48.765 9.15474 48.7309L9.47349 48.6455C9.4997 48.4728 9.59973 48.3632 9.7736 48.3166L12.6134 47.5557C12.7873 47.5091 12.9287 47.554 13.0378 47.6904L12.7045 47.7797C12.7438 47.8106 12.7726 47.8598 12.7907 47.9275L12.8062 47.9854L13.1105 47.9039L13.1299 47.9763L13.4487 47.8909L13.5263 48.1807L14.2218 47.9943L14.2606 48.1392L13.116 48.4459L13.1548 48.5908L12.9375 48.6491L12.9763 48.794L13.9325 48.5377L13.952 48.6102L15.169 48.2841L15.2467 48.5738L14.1165 48.8766L14.1748 49.094L13.4938 49.2764L13.5326 49.4213L13.4022 49.4563L13.4799 49.7461L11.973 50.1498L11.9924 50.2223L13.5138 49.8146L13.5526 49.9595L12.8136 50.1575L12.8525 50.3024L11.8382 50.5742L11.8771 50.719L12.9348 50.4356L13.0124 50.7254L13.592 50.5701L13.6114 50.6426L13.9591 50.5494L13.9979 50.6943L14.0559 50.6787L14.1335 50.9685L13.9597 51.0151L13.9791 51.0876L13.9646 51.0914L14.0034 51.2363L14.1193 51.2053L14.197 51.495L14.3708 51.4485L14.4291 51.6658L14.4725 51.6541L14.5502 51.9439L13.3911 52.2545L13.4493 52.4718L13.9709 52.3321L14.0291 52.5494L13.5365 52.6814L13.5947 52.8987ZM8.95803 53.9082L9.3782 53.7956L9.43644 54.013L9.97253 53.8693L9.91429 53.652L10.4069 53.52L10.3487 53.3027L9.82708 53.4424L9.76885 53.2251L10.928 52.9145L10.8503 52.6247L10.8068 52.6364L10.7486 52.419L10.5747 52.4656L10.4971 52.1758L10.3812 52.2069L10.3424 52.062L10.3569 52.0581L10.3374 51.9857L10.5113 51.9391L10.4337 51.6493L10.3757 51.6649L10.3369 51.52L9.98915 51.6131L9.96974 51.5407L9.39018 51.696L9.31254 51.4062L8.25485 51.6896L8.21603 51.5447L9.23025 51.273L9.19143 51.1281L9.93036 50.9301L9.89154 50.7852L5.15367 52.0547L5.19249 52.1996L6.49649 51.8502L6.53532 51.9951L7.65096 51.6961L7.68978 51.841L7.84916 51.7983L7.92681 52.0881L8.14414 52.0299L8.16355 52.1023L8.09111 52.1217L8.12993 52.2666L8.26033 52.2317L8.33798 52.5214L8.29451 52.5331L8.31392 52.6055L8.24148 52.6249L8.2803 52.7698L8.12092 52.8125L8.2568 53.3196L7.64827 53.4827L7.72591 53.7725L8.33445 53.6094L8.39268 53.8268L8.89979 53.6909L8.95803 53.9082ZM11.9769 53.4099L12.7158 53.2119L12.6964 53.1394L10.61 53.6985L10.6294 53.7709L9.13709 54.1708L9.21474 54.4606L7.99767 54.7867L8.07532 55.0765L7.61167 55.2007L7.63109 55.2732L8.16717 55.1295L8.24482 55.4193L8.88233 55.2485L8.88621 55.263C8.89915 55.3113 8.9121 55.3596 8.92504 55.4079C8.93539 55.4465 8.95187 55.4887 8.97447 55.5344L9.09038 55.5033L9.19208 55.709L9.17759 55.7129C9.22279 55.8043 9.3018 55.8867 9.41461 55.96L9.31319 55.9871C9.36736 56.0347 9.42859 56.0701 9.4969 56.0932L9.42446 56.1126C9.62231 56.1942 9.87096 56.1948 10.1704 56.1146C10.4602 56.037 10.6703 55.9134 10.8009 55.7438L10.6415 55.7865C10.6891 55.7323 10.7245 55.6711 10.7476 55.6028L10.5303 55.661C10.5675 55.5682 10.5948 55.4574 10.612 55.3285L10.9163 55.247C10.9252 55.2032 10.9258 55.1668 10.9181 55.1378C10.9174 55.0966 10.9167 55.0554 10.916 55.0141L10.3364 55.1694C10.3331 55.1185 10.3263 55.0738 10.316 55.0352C10.3127 54.9843 10.3046 54.9347 10.2916 54.8864L10.2878 54.8719L11.0846 54.6584L11.007 54.3686L10.8766 54.4035L10.8572 54.3311L10.9586 54.3039L10.881 54.0141L12.0546 53.6997L11.9769 53.4099ZM27.5107 53.5958L27.5832 53.5764L27.622 53.7213L27.2453 53.8222L27.3229 54.112L26.3667 54.3682C26.377 54.4068 26.3777 54.4481 26.3688 54.4919C26.3598 54.5357 26.3495 54.5747 26.338 54.6088L25.8453 54.7408C25.8171 54.7898 25.7946 54.8217 25.7778 54.8366L26.3574 54.6813C26.3194 54.7328 26.257 54.7703 26.1701 54.7936L23.8808 55.407C23.8229 55.4225 23.7684 55.4319 23.7176 55.4352C23.6641 55.4288 23.6167 55.426 23.5755 55.4267L22.9815 55.5858C22.9377 55.5769 22.8926 55.5631 22.8461 55.5445L23.3388 55.4125C23.2801 55.3868 23.2311 55.3585 23.1918 55.3276C23.1525 55.2967 23.1206 55.2742 23.0961 55.2601L23.0922 55.2456L24.034 54.9932L23.768 54.7539L24.1447 54.653L24.0044 54.5353L23.932 54.5547L23.7289 54.3762L22.0626 54.8227L21.7821 54.5872L21.9995 54.529L21.7335 54.2897L21.2264 54.4256L21.149 54.3686L21.8155 54.1901L21.6124 54.0116L21.9166 53.93L21.7135 53.7515L21.1195 53.9107L20.8535 53.6714L21.7663 53.4268L21.7034 53.366L21.2253 53.4941L21.0995 53.3725L20.6503 53.4929L20.3843 53.2536L20.138 53.3196L20.0751 53.2588L20.7416 53.0802L20.5385 52.9017L19.7851 53.1035L19.8433 53.3209L19.1189 53.515L19.1383 53.5874L20.1235 53.3234L20.2012 53.6132L20.3461 53.5744L20.3849 53.7193L20.3994 53.7154L20.4188 53.7878L19.9986 53.9004L20.0763 54.1902L19.3953 54.3727L19.4535 54.59L20.2504 54.3765L20.3086 54.5938L20.1638 54.6326L20.1832 54.7051L20.0093 54.7517L20.0869 55.0415L20.4057 54.956L20.4833 55.2458L20.6137 55.2109L20.672 55.4282L20.0779 55.5874L20.1168 55.7323L20.6239 55.5964L20.7015 55.8862L20.064 56.057C20.0744 56.0956 20.0751 56.1369 20.0661 56.1807C20.0571 56.2245 20.0469 56.2635 20.0353 56.2976L20.4989 56.1734C20.4707 56.2224 20.4482 56.2543 20.4314 56.2691L19.9823 56.3895C19.9443 56.4411 19.8819 56.4785 19.795 56.5018L17.1725 57.2045C17.0759 57.2304 16.9983 57.2305 16.9396 57.2048L17.4033 57.0805C17.3813 57.076 17.3459 57.0597 17.2969 57.0314L16.8188 57.1595C16.7917 57.1357 16.7633 57.1071 16.7336 57.0736C16.704 57.0401 16.684 57.0041 16.6736 56.9654L17.2966 56.7985L17.219 56.5087L16.7119 56.6446L16.673 56.4997L17.2671 56.3405L17.2089 56.1232L17.0785 56.1582L17.0008 55.8684L16.6821 55.9538L16.6044 55.664L16.7783 55.6174L16.7589 55.545L16.9038 55.5062L16.8455 55.2888L16.0486 55.5023L15.9904 55.285L16.6714 55.1025L16.5937 54.8128L17.0139 54.7002L16.9945 54.6277L16.98 54.6316L16.9412 54.4867L16.7963 54.5256L16.7186 54.2358L15.7334 54.4998L15.714 54.4273L16.4384 54.2332L16.3802 54.0159L17.0757 53.8295L17.0563 53.7571L16.2883 53.9628L16.2689 53.8904L16.5587 53.8128L16.4811 53.523L16.2492 53.5851L16.1716 53.2953L16.1861 53.2914L16.1667 53.219L16.0508 53.2501L16.0314 53.1776L16.0458 53.1737L15.9876 52.9564L15.437 53.1039L15.4176 53.0315L15.7943 52.9305L15.7555 52.7856L14.9007 53.0147L14.823 52.7249L16.2574 52.3406L16.2186 52.1957L15.3058 52.4403L15.2281 52.1505L15.7497 52.0107L15.7303 51.9383L15.8173 51.915L15.759 51.6977L16.0198 51.6278L15.981 51.4829L16.1114 51.4479L16.0532 51.2306L15.6765 51.3316L15.6571 51.2591L15.5122 51.2979L15.4733 51.153L15.3285 51.1919L15.2508 50.9021L15.5261 50.8283L15.4679 50.611L15.8591 50.5062L15.8202 50.3613L16.733 50.1167L16.7136 50.0443L15.5835 50.3471L15.5641 50.2746L15.1874 50.3756L15.1291 50.1582L14.9698 50.2009L14.9115 49.9836L15.1723 49.9137L15.0947 49.6239L15.4714 49.523L15.4132 49.3057L15.7754 49.2086L15.7366 49.0637L15.0121 49.2578L14.9927 49.1854L15.0796 49.1621L15.002 48.8723L15.3352 48.783L15.3158 48.7106L14.6348 48.8931L14.596 48.7482L15.0162 48.6356L14.9386 48.3458L14.388 48.4933L14.3297 48.276L14.692 48.1789L14.6531 48.0341L13.3636 48.3796L13.3054 48.1622L13.0301 48.236L12.9913 48.0911L13.962 47.831L13.9077 47.6282C13.8973 47.5895 13.8944 47.5593 13.8989 47.5373L14.8696 47.2772C14.8593 47.2386 14.8657 47.1851 14.8888 47.1168L14.628 47.1867C14.6768 47.0597 14.7688 46.9781 14.904 46.9419L17.1933 46.3285C17.2995 46.3 17.3952 46.2899 17.4802 46.2982C17.5652 46.3065 17.6384 46.3283 17.6996 46.3636L17.9604 46.2938C18.0094 46.3221 18.061 46.36 18.1152 46.4076L17.1444 46.6677C17.147 46.6774 17.1483 46.6822 17.1483 46.6822C17.1579 46.6796 17.1641 46.6831 17.1666 46.6928L17.3959 46.9109L16.4252 47.171L16.5509 47.2926L16.8262 47.2188L17.0148 47.4012L18.3043 47.0557L18.4301 47.1773L18.0824 47.2705L18.271 47.4529L18.8071 47.3092L19.0731 47.5485L18.6529 47.6611L18.7787 47.7827L19.4596 47.6003L19.5225 47.6611L19.1893 47.7503L19.4408 47.9935L19.3539 48.0168L19.4167 48.0776L20.1412 47.8835L20.2669 48.0051L19.9047 48.1022L20.1078 48.2807L19.7311 48.3816L19.9826 48.6248L19.7074 48.6986L19.896 48.881L20.0554 48.8383L20.2585 49.0168L20.6352 48.9158L20.6981 48.9766L20.9154 48.9184L20.896 48.8459L21.3307 48.7295L21.2724 48.5121L20.8523 48.6247L20.794 48.4074L20.8954 48.3802L20.8178 48.0904L21.1076 48.0128L21.0493 47.7955L21.3971 47.7023L21.3582 47.5574L20.6628 47.7438L20.5657 47.3815L21.4206 47.1525L21.4012 47.08L21.3867 47.0839L21.3478 46.939L20.435 47.1836L20.3574 46.8938L20.6762 46.8084L20.6179 46.5911L21.0381 46.4785L20.9993 46.3336L20.1155 46.5704L20.0572 46.3531L21.1874 46.0503L21.1485 45.9054L21.0616 45.9287L21.0072 45.7258C20.9969 45.6872 20.994 45.6569 20.9984 45.635L20.5203 45.7631C20.5196 45.7219 20.5308 45.6671 20.5539 45.5988L20.0613 45.7308C20.1101 45.6039 20.2021 45.5223 20.3374 45.486L22.9598 44.7834C23.0951 44.7471 23.2156 44.7718 23.3213 44.8573L23.8139 44.7253C23.8436 44.7588 23.8759 44.8019 23.9107 44.8547L24.3888 44.7266L24.4665 45.0163L24.5534 44.9931L24.5922 45.1379L23.4621 45.4408L23.5203 45.6581L24.4042 45.4213L24.443 45.5662L24.0228 45.6787L24.081 45.8961L23.7623 45.9815L23.8399 46.2713L24.7527 46.0267L24.7916 46.1716L24.806 46.1677L24.8255 46.2401L23.9706 46.4692L24.0677 46.8314L24.7631 46.6451L24.802 46.79L24.4542 46.8831L24.5125 47.1005L24.2227 47.1781L24.3003 47.4679L24.1989 47.4951L24.2571 47.7124L24.6773 47.5998L24.7356 47.8171L24.3009 47.9336L24.3203 48.0061L25.3345 47.7343L25.3539 47.8067L24.8178 47.9504L24.8567 48.0953L24.7118 48.1341L24.77 48.3514L24.2919 48.4795L24.3695 48.7693L23.8769 48.9013L23.9157 49.0462L24.6691 48.8443L24.6886 48.9168L25.1812 48.7848L25.2394 49.0021L25.109 49.037L25.1478 49.1819L24.887 49.2518L24.9453 49.4692L24.8583 49.4924L24.8777 49.5649L24.3561 49.7047L24.4338 49.9944L25.3466 49.7498L25.3854 49.8947L23.951 50.2791L24.0287 50.5689L24.8835 50.3398L24.9223 50.4847L24.5456 50.5856L24.565 50.6581L25.1156 50.5106L25.1738 50.7279L25.1594 50.7318L25.1788 50.8042L25.6424 50.68L25.6618 50.7524L25.3431 50.8378L25.4207 51.1276L25.4497 51.1198L25.5273 51.4096L25.933 51.3009L25.9524 51.3734L25.257 51.5597L25.2764 51.6322L25.6966 51.5196L25.7548 51.7369L25.0883 51.9155L25.1077 51.9879L25.3395 51.9258L25.4172 52.2156L25.8663 52.0952L25.9052 52.2401L26.3833 52.112L26.4027 52.1845L25.4754 52.4329L25.5531 52.7227L26.1471 52.5635L26.2053 52.7809L25.9011 52.8624L25.9593 53.0797L25.3073 53.2544L25.3267 53.3269L25.8338 53.191L25.9115 53.4808L25.6941 53.539L25.7718 53.8288L27.4525 53.3784L27.5107 53.5958ZM21.9296 48.6466L21.8282 48.6738L21.8911 48.7346L21.949 48.7191L21.9296 48.6466ZM20.9783 48.9792L21.104 49.1008L20.7128 49.2056L20.9015 49.388L21.3651 49.2638L21.3069 49.0464L21.4518 49.0076L21.413 48.8627L20.9783 48.9792ZM20.887 49.3919L20.6262 49.4618L20.8777 49.705L20.9646 49.6817L20.887 49.3919ZM20.7509 52.7671L20.688 52.7063L20.2824 52.815L20.0164 52.5757L19.9729 52.5874L19.7069 52.348L20.0256 52.2626L19.9483 52.2057L19.5716 52.3067L19.591 52.3791L19.5765 52.383L19.6541 52.6728L19.886 52.6106L19.9636 52.9004L19.6738 52.9781L19.6932 53.0505L20.7509 52.7671ZM35.636 46.0611L34.926 46.2513C34.9267 46.2925 34.9274 46.3337 34.9281 46.375C34.9262 46.4065 34.9208 46.4442 34.9118 46.488L35.3175 46.3793L35.3129 46.5359L34.9651 46.629C34.9594 46.7237 34.9467 46.8307 34.9269 46.9499L34.7095 47.0081C34.6968 47.1151 34.6695 47.2259 34.6278 47.3406L34.6568 47.3328C34.6311 47.3915 34.6102 47.4488 34.5942 47.5049C34.5781 47.561 34.5573 47.6183 34.5316 47.677L36.0964 47.2577L35.9663 47.5255L34.6767 47.871C34.6511 47.9297 34.6157 47.9909 34.5707 48.0547C34.5257 48.1185 34.4855 48.1811 34.4501 48.2423L34.6385 48.1918C34.6102 48.2408 34.5723 48.2924 34.5247 48.3466C34.4841 48.3885 34.4449 48.4352 34.4069 48.4868L34.8851 48.3587L34.8388 48.4177L35.0352 48.6291L34.6874 48.7222L34.9245 48.9693L34.9679 48.9577L35.0308 49.0185L35.0163 49.0224L35.2388 49.2733L35.3837 49.2345L35.5095 49.3561L34.3938 49.655L34.568 49.8413L35.5822 49.5695L35.708 49.6911L35.3892 49.7765L35.5634 49.9628L36.9978 49.5785L37.2348 49.8255L36.2785 50.0818L36.4527 50.268L36.0035 50.3884L36.3518 50.7609L36.4532 50.7338L36.579 50.8554L36.5355 50.867L36.5984 50.9278L35.9174 51.1103L36.1544 51.3573L36.2028 51.422L35.7537 51.5424L35.8688 51.6823C35.9081 51.7132 35.9343 51.7528 35.9472 51.8011L36.2515 51.7196L36.2593 51.7485C36.2877 51.8548 36.2675 51.9534 36.1987 52.0443L36.5899 51.9395C36.552 51.991 36.4944 52.0272 36.4171 52.0479L33.4469 52.8438C33.3889 52.8593 33.3345 52.8687 33.2836 52.872C33.2398 52.863 33.1925 52.8602 33.1416 52.8635L32.7504 52.9683C32.6628 52.9503 32.5822 52.9202 32.5087 52.8777C32.4449 52.8327 32.3933 52.7948 32.354 52.7639L32.0642 52.8416L32.0236 52.8058L31.8562 52.5867L32.3198 52.4625L32.2569 52.4017L30.8805 52.7705L30.8999 52.8429L30.161 53.0409L30.2386 53.3307L31.4122 53.0163C31.4291 53.1567 31.3922 53.2701 31.3015 53.3565L31.2001 53.3837C31.1428 53.4404 31.0755 53.4792 30.9983 53.4999L28.1584 54.2608C28.0715 54.2841 27.9987 54.2829 27.9401 54.2572L28.056 54.2261C27.9342 54.1966 27.8455 54.1169 27.79 53.9868L26.6309 54.2974C26.6283 54.2877 26.627 54.2829 26.627 54.2829C26.6147 54.2758 26.6073 54.2675 26.6047 54.2578L26.5387 54.0115L27.2777 53.8135L27.2583 53.7411L28.7071 53.3528L28.6295 53.0631L27.0792 53.4785L27.0598 53.406L27.9726 53.1614L27.9338 53.0166L27.6295 53.0981L27.5712 52.8807L28.0784 52.7449L28.0201 52.5275L27.1943 52.7488L27.136 52.5315L28.2517 52.2326L28.174 51.9428L27.5365 52.1136L27.4783 51.8963L27.4638 51.9001L27.4444 51.8277L27.3574 51.851L27.338 51.7786L26.9468 51.8834L26.8886 51.666L27.3812 51.534L27.3424 51.3892L27.212 51.4241L27.1344 51.1343L27.1488 51.1304L27.1294 51.058L27.086 51.0696L27.0083 50.7799L27.3561 50.6867L27.2784 50.3969L26.7858 50.5289L26.7275 50.3116L26.5392 50.362L26.4615 50.0723L27.7366 49.7306L27.6783 49.5133L26.1135 49.9326L26.0359 49.6428L26.0069 49.6506L25.9293 49.3608L26.1466 49.3025L26.069 49.0128L26.4022 48.9235L26.3634 48.7786L25.9577 48.8873L25.8995 48.67L26.6094 48.4797L26.5706 48.3348L27.6138 48.0553L27.575 47.9104L26.1406 48.2948L26.1212 48.2223L26.1936 48.2029L26.1742 48.1305L26.3046 48.0955L26.2852 48.0231L26.2997 48.0192L26.2608 47.8743L26.2319 47.8821L26.1736 47.6647L26.2316 47.6492L26.1539 47.3594L26.0815 47.3789L26.0427 47.234L26.1151 47.2146L26.0569 46.9972L25.9989 47.0127L25.9795 46.9403L26.023 46.9287L25.9842 46.7838L25.9697 46.7876L25.9503 46.7152L25.8923 46.7307L25.8729 46.6583L26.0033 46.6233L25.9451 46.406L26.061 46.375L26.0027 46.1576L25.3218 46.3401L25.2441 46.0503L25.4035 46.0076L25.3258 45.7178L25.2389 45.7411L25.1807 45.5238L25.5719 45.419L25.5136 45.2016L25.6585 45.1628L25.6003 44.9455L25.3395 45.0154L25.3007 44.8705L25.4021 44.8433L25.3827 44.7709L25.4117 44.7631L25.3534 44.5458L25.3824 44.538C25.3539 44.4317 25.3715 44.3235 25.4352 44.2133L26.2176 44.0036C26.26 43.9301 26.3343 43.8792 26.4406 43.8507L30.7293 42.7015C31.1446 42.5902 31.5388 42.5157 31.9117 42.4779L31.1438 42.6837C31.5457 42.6381 31.9386 42.6363 32.3226 42.6784L32.2936 42.6861C32.4733 42.7001 32.6521 42.7298 32.83 42.7754L32.801 42.7831L32.9508 42.8206L32.8349 42.8517C32.8884 42.8581 32.9335 42.8719 32.9702 42.8931C33.0166 42.9117 33.0617 42.9255 33.1055 42.9345L33.3663 42.8646C33.425 42.8903 33.4836 42.916 33.5423 42.9417C33.5983 42.9577 33.6509 42.9799 33.6999 43.0081L33.555 43.047C33.6136 43.0727 33.6626 43.1009 33.7019 43.1318C33.7483 43.1504 33.796 43.1739 33.845 43.2022L33.4538 43.307C33.5028 43.3353 33.547 43.3649 33.5863 43.3957C33.6231 43.417 33.6611 43.443 33.7004 43.4739L33.7729 43.4545C33.876 43.5303 33.9695 43.6088 34.0534 43.6899L33.9085 43.7287C33.9478 43.7596 33.9849 43.8014 34.0197 43.8542C34.0616 43.8947 34.1036 43.9352 34.1455 43.9758L34.8265 43.7933L34.9716 43.9874L34.8557 44.0184C34.8757 44.0545 34.8957 44.0905 34.9158 44.1266C34.9428 44.1504 34.9664 44.1803 34.9864 44.2163L34.8415 44.2552L34.8899 44.3198L34.9479 44.3043C34.9627 44.321 34.974 44.3439 34.9818 44.3729L35.064 44.5061L35.1075 44.4945C35.1153 44.5234 35.1266 44.5463 35.1414 44.563L35.1559 44.5591C35.1759 44.5952 35.1911 44.6325 35.2014 44.6712C35.2189 44.6976 35.2328 44.7301 35.2431 44.7687L35.0548 44.8192C35.0599 44.8385 35.0664 44.8626 35.0742 44.8916C35.0819 44.9206 35.0932 44.9435 35.1081 44.9602L35.195 44.9369C35.2079 44.9852 35.2209 45.0335 35.2338 45.0818C35.2564 45.1275 35.2742 45.1745 35.2871 45.2228L35.326 45.3677L35.4129 45.3444L35.4323 45.4168L35.3454 45.4401L35.3842 45.585L35.2393 45.6238C35.2419 45.6335 35.2397 45.6444 35.2326 45.6567C35.2352 45.6664 35.2391 45.6808 35.2442 45.7002L35.3891 45.6613C35.3917 45.671 35.3895 45.682 35.3824 45.6942C35.385 45.7039 35.3889 45.7183 35.394 45.7377L36.075 45.5552C36.0705 45.5771 36.0722 45.6025 36.0799 45.6315L36.2683 45.5811L36.2926 45.7298L35.6261 45.9084C35.6224 45.9715 35.6256 46.0224 35.636 46.0611ZM29.7628 47.3242L31.1972 46.9399L31.236 47.0847L30.1928 47.3643L30.1967 47.3788L31.2544 47.0954C31.322 47.0772 31.3738 47.0582 31.4099 47.0382L32.0764 46.8596C32.1749 46.8021 32.2585 46.7279 32.3273 46.637L32.1245 46.6914L32.1775 46.5995L31.4965 46.782C31.5177 46.7453 31.5306 46.7159 31.5351 46.694L31.3902 46.7328L31.4142 46.6488L31.5591 46.6099L31.5638 46.4534L31.6362 46.434C31.6407 46.4121 31.6391 46.3866 31.6313 46.3577L31.5444 46.381L31.52 46.2322C31.4941 46.1356 31.4538 46.0429 31.3989 45.9541L31.312 45.9773C31.2971 45.9606 31.281 45.9391 31.2636 45.9127C31.2558 45.8837 31.2397 45.8621 31.2152 45.848L31.418 45.7936C31.3587 45.7267 31.2862 45.6685 31.2004 45.619L31.1715 45.6268C31.1347 45.6056 31.0944 45.5905 31.0506 45.5815L31.0072 45.5932C30.8976 45.5707 30.7897 45.5738 30.6835 45.6022L29.6258 45.8856L29.6452 45.9581L29.6017 45.9697L29.6211 46.0422L29.6791 46.0266L29.7373 46.244L29.6649 46.2634L29.7037 46.4083L29.7762 46.3889L29.8538 46.6786L29.7958 46.6942L29.8541 46.9115L29.8831 46.9037L29.9219 47.0486L29.9074 47.0525L29.9268 47.125L29.7964 47.1599L29.8158 47.2323L29.7434 47.2518L29.7628 47.3242ZM31.8003 50.3499L31.7036 50.2206L31.5442 50.2633L31.3545 50.0191L30.7605 50.1782L30.8342 50.4535L30.9646 50.4186L31.0034 50.5635L31.8003 50.3499ZM30.5108 50.6955L30.5691 50.9128L30.8443 50.839L30.6992 50.645L30.5108 50.6955ZM31.907 50.632L31.8586 50.5673L30.9603 50.808L30.9797 50.8804L31.0666 50.8571L31.086 50.9296L31.1005 50.9257L31.1587 51.143L31.7962 50.9722L31.8739 51.262L30.7582 51.5609L30.8165 51.7783L31.6423 51.557L31.7006 51.7743L31.1935 51.9102L31.2517 52.1275L31.556 52.046L31.5948 52.1909L30.682 52.4355L30.7014 52.5079L32.7443 51.9605L32.6815 51.8997L32.7249 51.8881L32.6137 51.7626L32.4978 51.7936L32.3526 51.5996L32.1929 51.4094L32.6566 51.2852L32.4969 51.095L33.4387 50.8427L33.2306 50.5879L31.7962 50.9722L31.6511 50.7782L31.9698 50.6928L31.907 50.632ZM48.5184 47.9668L48.6974 48.2294L48.4511 48.2954L48.4995 48.3601C48.5021 48.3697 48.506 48.3842 48.5112 48.4035C48.5234 48.4106 48.5308 48.419 48.5334 48.4286L48.4465 48.4519L48.4543 48.4809C48.4853 48.5968 48.4651 48.6954 48.3937 48.7766L48.4082 48.7728C48.3703 48.8243 48.3127 48.8605 48.2354 48.8812L45.555 49.5994C45.4873 49.6175 45.4281 49.6282 45.3772 49.6315C45.3334 49.6225 45.286 49.6197 45.2352 49.623C45.1475 49.6051 45.0779 49.5771 45.0264 49.5392C44.9722 49.4916 44.929 49.4462 44.8967 49.4031L44.9692 49.3837L44.9653 49.3692L44.9208 49.319L44.8724 49.2543L45.1187 49.1883L44.9396 48.9257L44.6643 48.9995L44.582 48.8662L45.1761 48.7071L44.997 48.4445L44.8232 48.4911L44.7525 48.4013L41.6374 49.236L41.6356 49.3452L41.4617 49.3917L41.438 49.7087L41.2786 49.7514L41.2594 49.9118L41.1725 49.9351L41.1487 50.2521L41.1632 50.2482L41.1537 50.3284L41.1547 50.3902L41.1441 50.4086L41.0716 50.428C41.0653 50.4815 41.0505 50.5424 41.0274 50.6107C41.0017 50.6693 40.9554 50.7283 40.8885 50.7877L41.3232 50.6712C41.2871 50.6912 41.2475 50.7174 41.2044 50.7496C41.1587 50.7722 41.102 50.7926 41.0344 50.8107L38.354 51.5289C38.2767 51.5496 38.2136 51.5458 38.1646 51.5175L37.7299 51.634C37.6152 51.5923 37.5436 51.5183 37.5151 51.412L37.5074 51.3831L37.5943 51.3598C37.5865 51.3308 37.5849 51.3053 37.5894 51.2834L37.5845 51.2071L37.57 51.211L37.5938 50.894L37.6807 50.8707L37.6998 50.7103L37.8592 50.6676L37.883 50.3507L38.0424 50.308L38.0661 49.991L37.5011 50.1424L37.5202 49.982L37.4767 49.9936L37.4909 49.7569L37.6358 49.7181L37.6454 49.6379L37.3266 49.7233L37.3504 49.4063L37.843 49.2743L37.8477 49.1178L37.3985 49.2381L37.4081 49.1579L37.4805 49.1385L37.5043 48.8216L37.4608 48.8332L37.4751 48.5965L37.533 48.5809L37.5568 48.264L37.7451 48.2135L37.7594 47.9768L37.7689 47.8966L38.4934 47.7024L38.5029 47.6222L38.4595 47.6339L38.4737 47.3971L37.6623 47.6146L37.6861 47.2976L37.9469 47.2277L37.9564 47.1475L37.7971 47.1902L37.8066 47.11L38.2703 46.9858L38.294 46.6688L37.729 46.8202L37.7481 46.6598L37.9654 46.6016L37.9892 46.2846L37.8588 46.3196L37.873 46.0828L38.0324 46.0401L38.0562 45.7232L38.0127 45.7348L38.0223 45.6546L37.689 45.7439L37.7082 45.5835L38.0269 45.4981L38.0411 45.2613L37.8963 45.3001L37.8913 45.2238L38.1521 45.1539L38.1759 44.837L37.8572 44.9224L37.8714 44.6856L37.712 44.7283L37.7166 44.5718L36.7169 44.8397L36.7215 44.6832L36.5332 44.7336L36.557 44.4167L36.3686 44.4671L36.3973 44.2265L36.9624 44.0751L36.9861 43.7581L38.435 43.3699L38.4492 43.1332L37.7538 43.3195L37.7729 43.1591L38.309 43.0155L38.3328 42.6985L37.8546 42.8266L37.8689 42.5899L38.1731 42.5083L38.1969 42.1914L38.1534 42.203L38.1772 41.8861L37.7715 41.9948L37.7666 41.9185L39.1575 41.5458L39.1813 41.2288L39.1378 41.2405L39.1474 41.1603L38.6403 41.2961L38.6478 41.0922L38.6641 40.9792L38.809 40.9404L38.8571 40.7722L38.8136 40.7838C38.8438 40.7033 38.8972 40.632 38.9737 40.5701C39.0477 40.4985 39.1475 40.4459 39.2731 40.4122L42.4172 39.5698C42.5427 39.5361 42.6555 39.5318 42.7553 39.5568C42.8526 39.5722 42.9345 39.6072 43.0009 39.6618L43.0588 39.6463L43.1846 39.7679L43.0397 39.8067C43.0694 39.8402 43.0881 39.8714 43.0959 39.9004L43.2188 40.0693L43.7259 39.9334L43.7598 40.002L43.8033 39.9904L43.9823 40.253L42.6059 40.6218L42.6543 40.6865L43.06 40.5778L43.239 40.8404L43.2825 40.8287L43.4616 41.0913L43.1573 41.1728L43.288 41.3708L43.7661 41.2427L43.9452 41.5053L43.4091 41.6489L43.5059 41.7783L44.2013 41.5919L44.332 41.7898L42.8831 42.1781L43.0622 42.4407L42.4971 42.5921L42.6278 42.79L42.8017 42.7434L42.9807 43.006L42.4157 43.1574L42.5125 43.2868L44.8162 42.6695L44.8985 42.8027L44.7826 42.8338L44.9132 43.0317L44.6235 43.1094L44.8025 43.372L44.4548 43.4651L44.4887 43.5337L45.0103 43.3939L45.141 43.5919L45.1555 43.588L45.2522 43.7173L44.7741 43.8454L44.8225 43.9101L45.2861 43.7859L45.4652 44.0485L45.6246 44.0058L45.7553 44.2037L45.7118 44.2154L45.8909 44.478L46.1227 44.4158L46.2195 44.5452L45.7993 44.6578L45.9784 44.9204L46.2681 44.8427L46.302 44.9113L46.2296 44.9307L46.278 44.9954L46.0172 45.0653L46.1818 45.3318L47.0076 45.1105L47.1383 45.3084L47.1818 45.2968L47.2302 45.3614L46.4912 45.5594L46.5396 45.6241L46.5541 45.6202L46.6848 45.8181L46.4964 45.8686L46.6755 46.1312L46.6031 46.1506L46.7482 46.3447L46.7917 46.333L46.9708 46.5956L46.8983 46.615L46.9467 46.6797L47.3959 46.5594L47.4926 46.6887L46.9855 46.8246L47.1646 47.0872L47.4833 47.0018L47.5317 47.0665L47.3868 47.1053L47.532 47.2993L47.561 47.2916L47.6578 47.4209L48.2228 47.2695L48.4019 47.5321L48.5758 47.4855L48.7548 47.7481L48.1608 47.9073L48.2431 48.0406L48.5184 47.9668ZM40.9285 43.8665L41.1024 43.8199L41.0882 44.0566L41.6822 43.8975L41.5515 43.6995L41.6675 43.6685L41.5852 43.5352L40.9332 43.7099L40.9285 43.8665ZM41.5425 44.2455L41.4041 44.0186L41.3976 44.2843L41.5425 44.2455ZM41.1391 46.2171L41.1295 46.2973L41.2889 46.2546L41.286 46.3019L42.9233 45.8632L42.8972 45.8236L42.9696 45.8042L42.9357 45.7357L42.6459 45.8133L42.4813 45.5468L42.9015 45.4342L42.8192 45.301L42.5729 45.367L42.4083 45.1005L42.4518 45.0889L42.3356 44.8871L42.1762 44.9298L42.0117 44.6633L41.548 44.7875L41.4996 44.7228L41.9778 44.5947L41.8955 44.4615L41.881 44.4654L41.7503 44.2674L41.2867 44.3917L41.2869 44.6245L40.9682 44.71L40.9635 44.8665L41.2823 44.7811L41.2872 44.8574L41.3307 44.8458L41.3214 45.1588L41.162 45.2015L41.1478 45.4383L41.2782 45.4033L41.2689 45.7164L41.0516 45.7746L41.0469 45.9312L41.612 45.7798L41.6027 46.0928L41.1391 46.2171ZM59.6297 44.9895L59.7021 44.9701L59.7409 45.115L59.3642 45.216L59.4419 45.5057L58.4856 45.762C58.4959 45.8006 58.4966 45.8418 58.4877 45.8856C58.4787 45.9294 58.4684 45.9684 58.4569 46.0026L57.9643 46.1346C57.936 46.1836 57.9135 46.2155 57.8967 46.2303L58.4763 46.075C58.4384 46.1266 58.3759 46.164 58.289 46.1873L55.9997 46.8007C55.9418 46.8163 55.8874 46.8257 55.8365 46.829C55.783 46.8226 55.7357 46.8197 55.6944 46.8204L55.1004 46.9796C55.0566 46.9706 55.0115 46.9568 54.9651 46.9382L55.4577 46.8062C55.399 46.7805 55.3501 46.7522 55.3107 46.7214C55.2714 46.6905 55.2395 46.668 55.215 46.6538L55.2111 46.6394L56.1529 46.387L55.8869 46.1477L56.2636 46.0468L56.1233 45.929L56.0509 45.9485L55.8478 45.7699L54.1816 46.2164L53.9011 45.981L54.1184 45.9228L53.8524 45.6834L53.3453 45.8193L53.2679 45.7624L53.9344 45.5838L53.7313 45.4053L54.0356 45.3238L53.8324 45.1453L53.2384 45.3044L52.9724 45.0651L53.8852 44.8206L53.8223 44.7598L53.3442 44.8879L53.2184 44.7663L52.7693 44.8866L52.5033 44.6473L52.2569 44.7133L52.1941 44.6525L52.8606 44.4739L52.6574 44.2954L51.904 44.4973L51.9622 44.7146L51.2378 44.9088L51.2572 44.9812L52.2425 44.7172L52.3201 45.007L52.465 44.9682L52.5038 45.113L52.5183 45.1092L52.5377 45.1816L52.1175 45.2942L52.1952 45.584L51.5142 45.7664L51.5724 45.9838L52.3693 45.7702L52.4276 45.9876L52.2827 46.0264L52.3021 46.0988L52.1282 46.1454L52.2059 46.4352L52.5246 46.3498L52.6023 46.6396L52.7327 46.6046L52.7909 46.822L52.1969 46.9811L52.2357 47.126L52.7428 46.9902L52.8204 47.2799L52.1829 47.4508C52.1933 47.4894 52.194 47.5306 52.185 47.5744C52.176 47.6182 52.1658 47.6572 52.1542 47.6914L52.6179 47.5671C52.5896 47.6161 52.5671 47.6481 52.5503 47.6629L52.1012 47.7832C52.0632 47.8348 52.0008 47.8723 51.9139 47.8955L49.2914 48.5982C49.1948 48.6241 49.1172 48.6242 49.0585 48.5985L49.5222 48.4743C49.5003 48.4698 49.4648 48.4534 49.4158 48.4251L48.9377 48.5532C48.9106 48.5294 48.8822 48.5008 48.8526 48.4674C48.8229 48.4339 48.8029 48.3978 48.7925 48.3592L49.4155 48.1923L49.3379 47.9025L48.8308 48.0384L48.792 47.8935L49.386 47.7343L49.3278 47.517L49.1974 47.5519L49.1197 47.2621L48.801 47.3476L48.7233 47.0578L48.8972 47.0112L48.8778 46.9387L49.0227 46.8999L48.9644 46.6826L48.1676 46.8961L48.1093 46.6788L48.7903 46.4963L48.7126 46.2065L49.1328 46.0939L49.1134 46.0215L49.0989 46.0254L49.0601 45.8805L48.9152 45.9193L48.8376 45.6295L47.8523 45.8935L47.8329 45.8211L48.5574 45.627L48.4991 45.4096L49.1946 45.2233L49.1752 45.1508L48.4073 45.3566L48.3879 45.2842L48.6776 45.2065L48.6 44.9167L48.3682 44.9789L48.2905 44.6891L48.305 44.6852L48.2856 44.6128L48.1697 44.6438L48.1503 44.5714L48.1648 44.5675L48.1065 44.3502L47.556 44.4977L47.5365 44.4252L47.9133 44.3243L47.8744 44.1794L47.0196 44.4085L46.9419 44.1187L48.3763 43.7343L48.3375 43.5894L47.4247 43.834L47.3471 43.5443L47.8687 43.4045L47.8493 43.332L47.9362 43.3088L47.878 43.0914L48.1388 43.0215L48.0999 42.8767L48.2303 42.8417L48.1721 42.6244L47.7954 42.7253L47.776 42.6529L47.6311 42.6917L47.5923 42.5468L47.4474 42.5856L47.3697 42.2959L47.645 42.2221L47.5868 42.0048L47.978 41.8999L47.9392 41.755L48.852 41.5105L48.8326 41.438L47.7024 41.7408L47.683 41.6684L47.3063 41.7693L47.2481 41.552L47.0887 41.5947L47.0304 41.3774L47.2912 41.3075L47.2136 41.0177L47.5903 40.9168L47.5321 40.6994L47.8943 40.6024L47.8555 40.4575L47.131 40.6516L47.1116 40.5792L47.1986 40.5559L47.1209 40.2661L47.4542 40.1768L47.4347 40.1044L46.7538 40.2868L46.7149 40.1419L47.1351 40.0293L47.0575 39.7396L46.5069 39.8871L46.4487 39.6698L46.8109 39.5727L46.7721 39.4278L45.4826 39.7733L45.4243 39.556L45.149 39.6298L45.1102 39.4849L46.081 39.2248L46.0266 39.0219C46.0163 38.9833 46.0133 38.953 46.0178 38.9311L46.9886 38.671C46.9782 38.6324 46.9846 38.5789 47.0077 38.5106L46.7469 38.5805C46.7957 38.4535 46.8877 38.3719 47.0229 38.3357L49.3122 37.7223C49.4184 37.6938 49.5141 37.6837 49.5991 37.692C49.6842 37.7002 49.7573 37.7221 49.8185 37.7574L50.0793 37.6875C50.1283 37.7158 50.1799 37.7538 50.2341 37.8014L49.2633 38.0615C49.2659 38.0711 49.2672 38.076 49.2672 38.076C49.2769 38.0734 49.283 38.0769 49.2856 38.0866L49.5148 38.3047L48.5441 38.5648L48.6698 38.6864L48.9451 38.6126L49.1338 38.795L50.4233 38.4495L50.549 38.5711L50.2013 38.6642L50.3899 38.8466L50.926 38.703L51.192 38.9423L50.7718 39.0549L50.8976 39.1765L51.5786 38.994L51.6414 39.0548L51.3082 39.1441L51.5597 39.3873L51.4728 39.4106L51.5357 39.4714L52.2601 39.2773L52.3859 39.3989L52.0236 39.4959L52.2268 39.6744L51.85 39.7754L52.1016 40.0186L51.8263 40.0923L52.0149 40.2747L52.1743 40.232L52.3774 40.4105L52.7541 40.3096L52.817 40.3704L53.0343 40.3122L53.0149 40.2397L53.4496 40.1232L53.3913 39.9059L52.9712 40.0185L52.9129 39.8012L53.0144 39.774L52.9367 39.4842L53.2265 39.4066L53.1683 39.1892L53.516 39.0961L53.4772 38.9512L52.7817 39.1375L52.6846 38.7753L53.5395 38.5462L53.5201 38.4738L53.5056 38.4777L53.4668 38.3328L52.554 38.5774L52.4763 38.2876L52.7951 38.2022L52.7368 37.9848L53.157 37.8723L53.1182 37.7274L52.2344 37.9642L52.1761 37.7469L53.3063 37.444L53.2675 37.2992L53.1805 37.3224L53.1262 37.1196C53.1158 37.081 53.1129 37.0507 53.1174 37.0288L52.6392 37.1569C52.6385 37.1157 52.6497 37.0609 52.6728 36.9926L52.1802 37.1246C52.229 36.9976 52.321 36.916 52.4563 36.8798L55.0788 36.1771C55.214 36.1409 55.3345 36.1655 55.4402 36.2511L55.9328 36.1191C55.9625 36.1525 55.9948 36.1957 56.0296 36.2484L56.5078 36.1203L56.5854 36.4101L56.6723 36.3868L56.7112 36.5317L55.581 36.8345L55.6393 37.0519L56.5231 36.815L56.5619 36.9599L56.1417 37.0725L56.2 37.2898L55.8812 37.3753L55.9589 37.665L56.8717 37.4204L56.9105 37.5653L56.925 37.5615L56.9444 37.6339L56.0895 37.863L56.1866 38.2252L56.8821 38.0388L56.9209 38.1837L56.5731 38.2769L56.6314 38.4942L56.3416 38.5719L56.4192 38.8616L56.3178 38.8888L56.3761 39.1062L56.7962 38.9936L56.8545 39.2109L56.4198 39.3274L56.4392 39.3998L57.4534 39.1281L57.4729 39.2005L56.9368 39.3441L56.9756 39.489L56.8307 39.5279L56.8889 39.7452L56.4108 39.8733L56.4884 40.1631L55.9958 40.2951L56.0346 40.44L56.7881 40.2381L56.8075 40.3105L57.3001 40.1785L57.3583 40.3959L57.2279 40.4308L57.2668 40.5757L57.006 40.6456L57.0642 40.8629L56.9773 40.8862L56.9967 40.9587L56.4751 41.0984L56.5527 41.3882L57.4655 41.1436L57.5043 41.2885L56.0699 41.6728L56.1476 41.9626L57.0024 41.7336L57.0413 41.8785L56.6645 41.9794L56.684 42.0518L57.2345 41.9043L57.2928 42.1216L57.2783 42.1255L57.2977 42.198L57.7613 42.0737L57.7807 42.1462L57.462 42.2316L57.5396 42.5214L57.5686 42.5136L57.6463 42.8034L58.0519 42.6947L58.0714 42.7671L57.3759 42.9535L57.3953 43.0259L57.8155 42.9133L57.8737 43.1307L57.2072 43.3093L57.2266 43.3817L57.4585 43.3196L57.5361 43.6094L57.9853 43.489L58.0241 43.6339L58.5022 43.5058L58.5216 43.5782L57.5943 43.8267L57.672 44.1165L58.266 43.9573L58.3243 44.1746L58.02 44.2562L58.0782 44.4735L57.4262 44.6482L57.4456 44.7206L57.9528 44.5848L58.0304 44.8745L57.8131 44.9328L57.8907 45.2225L59.5714 44.7722L59.6297 44.9895ZM54.0486 40.0404L53.9471 40.0676L54.01 40.1284L54.068 40.1128L54.0486 40.0404ZM53.0972 40.373L53.223 40.4945L52.8318 40.5994L53.0204 40.7818L53.484 40.6575L53.4258 40.4402L53.5707 40.4014L53.5319 40.2565L53.0972 40.373ZM53.0059 40.7856L52.7451 40.8555L52.9966 41.0987L53.0836 41.0754L53.0059 40.7856ZM52.8698 44.1609L52.807 44.1001L52.4013 44.2088L52.1353 43.9695L52.0918 43.9811L51.8258 43.7418L52.1446 43.6564L52.0672 43.5995L51.6905 43.7004L51.7099 43.7729L51.6954 43.7767L51.7731 44.0665L52.0049 44.0044L52.0825 44.2942L51.7927 44.3718L51.8122 44.4443L52.8698 44.1609ZM69.8477 42.2516L70.0992 42.4948L69.4617 42.6656L69.4801 42.6762C69.4923 42.6833 69.5023 42.7013 69.5101 42.7303C69.5275 42.7567 69.5437 42.7783 69.5585 42.795L69.515 42.8066L69.5228 42.8356C69.5331 42.8742 69.5374 42.9093 69.5355 42.9409C69.5336 42.9725 69.5269 43.0053 69.5153 43.0395L69.7037 42.989C69.6921 43.0232 69.6744 43.0538 69.6506 43.0809L68.8103 43.3061C68.7723 43.3576 68.7147 43.3938 68.6374 43.4145L65.334 44.2996C65.276 44.3152 65.2216 44.3246 65.1707 44.3279C65.1172 44.3215 65.0699 44.3186 65.0287 44.3193L65.869 44.0942C65.8375 44.0923 65.7875 44.0798 65.7192 44.0567L65.5309 44.1071C65.4722 44.0814 65.4232 44.0531 65.3839 44.0223C65.3542 43.9888 65.3271 43.965 65.3026 43.9509L65.2843 43.9403L65.3277 43.9286L65.2165 43.8031L65.8395 43.6362L65.6025 43.3891L66.9065 43.0397L66.8436 42.9789L65.7135 43.2817L65.6912 43.2566L65.699 43.2856L63.4387 43.8913L63.4581 43.9637L64.965 43.5599L65.0426 43.8497L64.1153 44.0982L64.1541 44.2431L62.7487 44.6197C62.7591 44.6583 62.7598 44.6995 62.7508 44.7433C62.7418 44.7871 62.7316 44.8261 62.72 44.8603L62.5896 44.8952C62.5613 44.9442 62.5388 44.9761 62.5221 44.991L61.5803 45.2433C61.5424 45.2949 61.4799 45.3323 61.393 45.3556L58.6256 46.0971C58.5387 46.1204 58.4659 46.1192 58.4073 46.0935L59.3345 45.8451C59.3126 45.8406 59.2772 45.8242 59.2282 45.7959L59.3586 45.761C59.3315 45.7372 59.3031 45.7085 59.2735 45.6751C59.2438 45.6416 59.2238 45.6056 59.2134 45.5669L60.6044 45.1942L60.5655 45.0493L61.4928 44.8009L61.4152 44.5111L59.9083 44.9149L59.8889 44.8424L62.1492 44.2368L62.091 44.0194L59.3236 44.761L59.2653 44.5436L59.5261 44.4737L59.4485 44.184L59.6803 44.1219L59.6415 43.977L59.598 43.9886L59.5204 43.6988L59.4914 43.7066L59.4138 43.4168L59.2979 43.4479L59.2396 43.2305L59.3266 43.2073L59.2877 43.0624L59.4471 43.0197L59.3695 42.7299L59.8911 42.5901L59.8328 42.3728L57.9927 42.8658L57.9539 42.7209L57.8235 42.7559L57.8041 42.6834L59.4558 42.2409L59.417 42.096L59.5619 42.0572L59.5425 41.9847L57.6589 42.4894L57.6007 42.2721L57.847 42.2061L57.8082 42.0612L57.8951 42.0379L57.8175 41.7481L59.2374 41.3676L59.1986 41.2228L59.5898 41.1179L59.5315 40.9006L57.7059 41.3898L57.6283 41.1L58.1209 40.968L58.0627 40.7507L58.7002 40.5798L58.6808 40.5074L59.6515 40.2473L59.6127 40.1024L60.1198 39.9665L60.0616 39.7492L60.163 39.722L60.1436 39.6496L59.8393 39.7311L59.7811 39.5138L58.8103 39.7739L58.7909 39.7014L58.1099 39.8839L58.0323 39.5941L60.7417 38.8681L60.7029 38.7232L57.3705 39.6162L57.3316 39.4713L59.8382 38.7996L59.78 38.5823L57.3603 39.2306L57.3215 39.0858L58.2633 38.8334L58.2245 38.6885L59.1228 38.4478L59.0451 38.158L58.7554 38.2357L58.6971 38.0184L58.7841 37.9951L58.7258 37.7777L58.3056 37.8903L58.2862 37.8179L57.982 37.8994L57.9237 37.6821L57.8368 37.7054L57.8174 37.6329L58.0057 37.5824L57.9669 37.4376L58.1553 37.3871L58.0776 37.0973L56.4838 37.5244L56.4644 37.4519L56.5514 37.4286L56.532 37.3562L57.126 37.197L57.1066 37.1246L56.9037 37.1789L56.8843 37.1065L58 36.8075L57.9806 36.7351L57.7053 36.8088L57.6859 36.7364L57.6714 36.7403L57.5937 36.4505L57.6662 36.4311L57.6274 36.2862L58.6271 36.0183L58.5883 35.8734L58.7187 35.8385L58.6798 35.6936L58.7378 35.6781L58.7184 35.6056L57.1681 36.021C57.1493 35.9122 57.1717 35.8027 57.2353 35.6924L57.3947 35.6497C57.4371 35.5763 57.5115 35.5253 57.6177 35.4968L60.3851 34.7553C60.4817 34.7294 60.5716 34.7364 60.6547 34.7762L60.4953 34.8189C60.6126 34.8703 60.6868 34.954 60.7179 35.0699L62.2682 34.6545L62.2876 34.7269L62.2296 34.7425L62.2684 34.8873L62.138 34.9223L62.1769 35.0672L61.1771 35.335L61.216 35.4799L61.1435 35.4993L61.2212 35.7891L61.2356 35.7852L61.2551 35.8577L61.5303 35.7839L61.5498 35.8564L60.4341 36.1553L60.4535 36.2278L60.6564 36.1734L60.6758 36.2458L60.0817 36.405L60.1011 36.4775L60.0142 36.5008L60.0336 36.5732L61.3956 36.2083L61.4196 36.1242L61.8833 35.9999L61.8928 35.9197L62.7332 35.6946L62.7573 35.6105L61.9169 35.8356L61.941 35.7515L62.1873 35.6855L62.2113 35.6015L62.2838 35.582L62.3078 35.498L62.4382 35.463L62.4478 35.3828L62.6072 35.3401L62.6648 35.0917L62.5924 35.1111L62.6405 34.9429L63.4664 34.7216L63.5 34.5573L62.8335 34.7359L62.8671 34.5716L63.5916 34.3775L63.6011 34.2973L62.6159 34.5613L62.6293 34.4956C62.6518 34.3861 62.7035 34.2894 62.7846 34.2055L62.6687 34.2366C62.7401 34.1553 62.8482 34.0953 62.9931 34.0565L66.1951 33.1985C66.2821 33.1752 66.3623 33.1848 66.4358 33.2272L66.5662 33.1923C66.6519 33.2417 66.7064 33.31 66.7297 33.3969C66.7375 33.4259 66.7378 33.4465 66.7307 33.4587L67.7305 33.1909C67.7331 33.2005 67.7308 33.2115 67.7238 33.2237C67.7263 33.2334 67.7302 33.2479 67.7354 33.2672L67.0254 33.4574L67.0042 33.4942L66.9773 33.6256L67.6438 33.447L67.5957 33.6152L66.7698 33.8365L66.7217 34.0047L66.7942 33.9853L66.722 34.2375L66.5771 34.2764L66.5531 34.3604L66.4227 34.3954L66.3986 34.4795L66.3262 34.4989L66.3021 34.583L66.0413 34.6529L66.0173 34.737L66.8721 34.5079L66.848 34.592L66.0077 34.8172L65.9836 34.9013L65.52 35.0255L65.4959 35.1096L65.5829 35.0863L65.5011 35.4188L66.0807 35.2635L66.0326 35.4317L66.163 35.3967L66.1389 35.4808L66.1534 35.4769L66.0813 35.7292L66.2841 35.6748L66.26 35.7589L66.2745 35.7551L66.2024 36.0073L65.9126 36.085L65.8404 36.3373L66.1447 36.2557L66.0485 36.5921L65.8891 36.6348L65.841 36.803L64.8992 37.0553L64.8511 37.2235L67.2707 36.5752L67.1986 36.8274L64.692 37.4991L64.6439 37.6673L67.9763 36.7743L67.9282 36.9425L65.2188 37.6685L65.1226 38.0049L65.8035 37.8224L65.7795 37.9065L66.7502 37.6464L66.6781 37.8987L66.9824 37.8171L66.9583 37.9012L66.8569 37.9284L66.7847 38.1807L66.2776 38.3165L66.2641 38.3823L66.3454 38.4537L65.3746 38.7138L65.4375 38.7746L64.8 38.9454L64.9886 39.1278L64.4815 39.2637L64.733 39.5069L66.5586 39.0177L66.7473 39.2001L66.3561 39.3049L66.4818 39.4265L65.0619 39.807L65.3134 40.0502L65.2265 40.0735L65.3523 40.195L65.1059 40.261L65.2946 40.4434L67.1781 39.9387L67.241 39.9995L67.0816 40.0422L67.2074 40.1638L66.8017 40.2725L66.8646 40.3333L66.7197 40.3722L66.8455 40.4938L65.7733 40.781L65.9619 40.9634L67.208 40.6296L67.4595 40.8728L67.4305 40.8805L67.5562 41.0021L67.6722 40.9711L67.8608 41.1534L68.1216 41.0836L68.3731 41.3268L68.1123 41.3966L68.3638 41.6398L68.3783 41.6359L68.4896 41.7614L68.5185 41.7537L68.7701 41.9969L68.857 41.9736L69.0456 42.156L69.7701 41.9618L69.9587 42.1442L71.0888 41.8414L71.1517 41.9022L69.8477 42.2516ZM61.5317 36.9482L61.836 36.8667L61.8554 36.9392L62.1887 36.8499L62.2127 36.7658L62.0099 36.8201L62.0676 36.5717L62.0531 36.5756L62.0771 36.4915L61.9467 36.5265L61.9803 36.3622L61.5167 36.4864L61.5555 36.6313L61.3672 36.6818L61.3866 36.7542L61.4735 36.7309L61.5317 36.9482ZM61.8467 37.718L61.7742 37.7374L61.8092 37.8678L61.8467 37.718ZM63.0056 41.2897L63.0491 41.2781L62.9784 41.1883L63.0056 41.2897ZM61.3733 41.8047L61.5037 41.7698L61.5425 41.9147L62.6871 41.608L62.5614 41.4864L62.7063 41.4476L62.6434 41.3868L61.3539 41.7323L61.3733 41.8047ZM62.8734 43.8098L64.8149 43.2896L64.6407 43.1033L64.5393 43.1305L64.3023 42.8834L64.2733 42.8912L64.162 42.7657L64.1475 42.7696L63.9105 42.5225L64.1713 42.4526L63.9343 42.2055L63.6735 42.2754L63.4849 42.093L63.369 42.1241L63.2577 41.9986L63.2867 41.9909L63.0352 41.7477L62.9192 41.7787L62.9969 42.0685L62.8375 42.1112L62.8763 42.2561L62.7894 42.2794L62.8476 42.4967L62.9635 42.4657L63.0412 42.7554L63.0702 42.7477L63.1478 43.0375L63.1913 43.0258L63.2301 43.1707L62.9983 43.2328L63.0759 43.5226L62.8151 43.5925L62.8734 43.8098ZM78.9133 37.959L80.0579 37.6523L80.1161 37.8696L77.9138 38.4598L77.9915 38.7495L79.4114 38.3691L79.489 38.6588L78.243 38.9927L78.3206 39.2825L78.48 39.2398L78.5382 39.4571L78.4368 39.4843L78.4756 39.6292L78.1714 39.7107L78.2102 39.8556L78.1957 39.8595L78.2345 40.0044L78.5388 39.9228L78.6164 40.2126L79.0366 40.1L79.0638 40.2015C79.069 40.2208 79.068 40.2366 79.0609 40.2488L76.4819 40.9399C76.4774 40.9618 76.4791 40.9872 76.4868 41.0162L77.4866 40.7483C77.4835 40.8527 77.4498 40.9393 77.3854 41.0083L77.1101 41.0821C77.0722 41.1337 77.0098 41.1711 76.9228 41.1944L69.3741 43.2171C69.2968 43.2378 69.2192 43.2379 69.1413 43.2174L69.4165 43.1436C69.336 43.1134 69.2635 43.0552 69.1989 42.969L68.1847 43.2407C68.1699 43.224 68.1586 43.2012 68.1508 43.1722L70.7443 42.4772L70.7055 42.3324L70.2853 42.4449L70.2077 42.1552L69.9034 42.2367L69.8646 42.0918L69.8791 42.0879L69.8403 41.943L70.1445 41.8615L70.1057 41.7166L70.2071 41.6894L70.1489 41.4721L69.9895 41.5148L69.9119 41.225L71.1579 40.8912L71.0803 40.6014L69.6603 40.9818L69.5827 40.6921L71.785 40.102L71.7268 39.8846L70.5822 40.1913L70.5433 40.0464L70.8766 39.9571L70.8378 39.8123L70.9826 39.7734L70.9438 39.6285L69.3356 40.0595L69.2967 39.9146L68.92 40.0155L68.8618 39.7982L70.2093 39.4371L70.1898 39.3647L69.1177 39.652L69.0788 39.5071L69.3976 39.4217L69.3588 39.2768L69.5906 39.2147L69.5324 38.9973L69.5034 39.0051L69.4257 38.7153L69.2808 38.7542L69.2032 38.4644L68.9859 38.5226L68.947 38.3777L69.1209 38.3311L69.0433 38.0414L68.8839 38.0841L68.8451 37.9392L69.0769 37.8771L69.0187 37.6597L69.0766 37.6442L69.0184 37.4269L69.2792 37.357L69.2598 37.2845L69.0135 37.3505L68.9358 37.0608L68.7185 37.119L68.6602 36.9017L68.7182 36.8861L68.66 36.6688L68.6889 36.661L68.6113 36.3713L68.8286 36.313L68.751 36.0232L68.4322 36.1087L68.3546 35.8189L68.398 35.8072L68.3204 35.5175L68.7261 35.4087L68.6679 35.1914L68.4505 35.2496L68.3923 35.0323L68.2764 35.0634L68.257 34.9909L68.8655 34.8279L68.8073 34.6105L69.8794 34.3233L69.8406 34.1784L69.406 34.2948L69.3671 34.1499L67.9617 34.5265L67.9423 34.4541L68.1017 34.4114L68.0434 34.194L68.0579 34.1902L67.9997 33.9728L68.0432 33.9612L67.9655 33.6714L67.951 33.6753L67.854 33.3131L67.825 33.3208L67.7901 33.1904C67.7797 33.1518 67.7768 33.1215 67.7812 33.0996L67.6364 33.1384C67.6206 32.9252 67.719 32.7902 67.9315 32.7332L75.3643 30.7416C75.5865 30.6821 75.7392 30.7499 75.8226 30.9449L75.9675 30.9061C75.9823 30.9228 75.9949 30.9505 76.0052 30.9892L76.0402 31.1196L76.0692 31.1118L76.1662 31.474L76.1807 31.4701L76.2584 31.7599L76.2149 31.7716L76.2731 31.9889L76.2586 31.9928L76.3169 32.2101L76.1575 32.2528L76.1769 32.3253L77.5823 31.9487L77.6212 32.0936L78.0558 31.9771L78.0946 32.122L77.0225 32.4093L77.0807 32.6266L76.4722 32.7897L76.4916 32.8621L76.6075 32.8311L76.6657 33.0484L76.8831 32.9902C76.8896 33.0919 76.8752 33.1734 76.8399 33.2347L76.4342 33.3434C76.3899 33.4484 76.3049 33.5178 76.1793 33.5514L71.8327 34.7161L71.8754 34.8755L71.8319 34.8871L71.9096 35.1769L72.2283 35.0915L72.306 35.3813L72.0886 35.4395L72.1352 35.6134L76.1631 34.5341C76.2694 34.5056 76.3715 34.5197 76.4695 34.5762L76.4405 34.584C76.5017 34.6194 76.5549 34.6828 76.6002 34.7742L76.5567 34.7858L76.6149 35.0031L76.8323 34.9449L76.9099 35.2347L77.1562 35.1687L77.1756 35.2411L76.9148 35.311L76.9731 35.5284L76.9151 35.5439L76.9733 35.7612L76.7415 35.8233L76.7803 35.9682L76.9397 35.9255L77.0174 36.2153L76.8435 36.2619L76.8823 36.4068L77.0996 36.3485L77.1773 36.6383L77.3222 36.5995L77.3377 36.6574C77.3662 36.7637 77.3627 36.8474 77.3274 36.9087L77.3564 36.9009C77.3076 37.0279 77.2155 37.1095 77.0803 37.1457L73.0524 38.225L73.0679 38.2829L72.8361 38.345L72.8749 38.4899L72.5562 38.5753L72.595 38.7202L73.6672 38.4329L73.6866 38.5054L72.3391 38.8664L72.3974 39.0838L72.7741 38.9828L72.8129 39.1277L74.4212 38.6968L74.4561 38.8272L78.9187 37.6314C78.967 37.6185 79.0069 37.613 79.0385 37.6149L78.8791 37.6576C78.9834 37.6607 79.0688 37.6896 79.1352 37.7442L78.802 37.8335C78.8562 37.8811 78.8933 37.923 78.9133 37.959ZM89.0243 29.504C89.054 29.5374 89.0837 29.5709 89.1134 29.6044C89.1404 29.6282 89.164 29.6581 89.184 29.6941L88.6479 29.8378C88.6776 29.8712 88.7098 29.9144 88.7447 29.9671C88.777 30.0103 88.8092 30.0534 88.8415 30.0965L86.5667 30.706L86.7313 30.9725L87.9049 30.658L88.0066 30.8637L87.8472 30.9064C87.8621 30.9232 87.8734 30.946 87.8811 30.975C87.8889 31.004 87.9002 31.0268 87.915 31.0435L87.5238 31.1484L87.5771 31.2894L87.8814 31.2078C87.8918 31.2465 87.9021 31.2851 87.9125 31.3238C87.9299 31.3501 87.9438 31.3827 87.9541 31.4213L88.4902 31.2777C88.5102 31.3137 88.5241 31.3462 88.5319 31.3752C88.5396 31.4042 88.5487 31.438 88.5591 31.4766L88.5629 31.4911L87.201 31.856C87.2139 31.9043 87.2269 31.9526 87.2398 32.0009C87.2624 32.0466 87.2802 32.0936 87.2931 32.1419L87.5974 32.0604C87.6103 32.1087 87.6233 32.157 87.6362 32.2053C87.6588 32.251 87.6766 32.298 87.6895 32.3463L88.2111 32.2065L88.2305 32.279L88.0277 32.3333L88.1053 32.6231L88.1633 32.6076L88.2215 32.8249L89.0764 32.5959L89.154 32.8856L88.3426 33.103L88.3815 33.2479L88.2945 33.2712C88.2997 33.2905 88.3062 33.3147 88.3139 33.3437C88.3217 33.3727 88.3233 33.3981 88.3189 33.42L88.0581 33.4899L88.1357 33.7797L88.1647 33.7719C88.1628 33.8035 88.1683 33.8434 88.1812 33.8917L88.189 33.9207L88.7251 33.777C88.7355 33.8157 88.741 33.8556 88.7417 33.8968C88.7494 33.9258 88.7585 33.9596 88.7688 33.9982L88.9862 33.94C88.9991 33.9883 89.0072 34.0379 89.0105 34.0888C89.0235 34.1371 89.0316 34.1867 89.0348 34.2375L88.7161 34.323C88.7116 34.3449 88.7132 34.3703 88.721 34.3993C88.7288 34.4283 88.7304 34.4537 88.7259 34.4756L86.9873 34.9415C86.9976 34.9801 87.0009 35.031 86.9971 35.0941L88.5184 34.6865C88.5147 34.7496 88.5179 34.8005 88.5283 34.8392L88.7456 34.7809C88.7463 34.8221 88.747 34.8634 88.7477 34.9046C88.7555 34.9336 88.7549 34.97 88.7459 35.0138L88.7413 35.1703L88.3211 35.2829L88.3115 35.3631L88.9925 35.1806C88.9835 35.2245 88.9803 35.2512 88.9829 35.2609L88.5483 35.3773L88.5387 35.4575L88.5242 35.4614C88.5178 35.5149 88.5115 35.5684 88.5051 35.6218C88.4987 35.6753 88.4875 35.7301 88.4715 35.7861L88.2541 35.8444L88.1724 36.1768L88.4187 36.1108L88.3706 36.279L88.3851 36.2751C88.3709 36.2996 88.3581 36.329 88.3465 36.3631C88.335 36.3973 88.3221 36.4266 88.308 36.4511L88.2066 36.4783C88.1854 36.515 88.1725 36.5443 88.168 36.5662C88.1494 36.6126 88.1308 36.659 88.1121 36.7055C88.0909 36.7422 88.0662 36.7851 88.0379 36.834L87.9944 36.8457C87.9591 36.9069 87.9189 36.9695 87.8739 37.0333C87.8385 37.0945 87.7983 37.1571 87.7533 37.2209L87.8837 37.1859L87.6377 37.4848L87.6522 37.4809C87.5878 37.5499 87.5187 37.6202 87.4447 37.6918C87.3707 37.7634 87.2919 37.8363 87.2082 37.9105L87.1937 37.9143C87.1101 37.9885 87.0023 38.0692 86.8703 38.1563L86.8848 38.1524C86.7098 38.2718 86.5224 38.3841 86.3229 38.4893C86.1233 38.5946 85.9163 38.6914 85.7019 38.7799L86.0062 38.6984C85.8568 38.7591 85.7013 38.8163 85.5397 38.87C85.3781 38.9237 85.2104 38.9738 85.0365 39.0204L80.7912 40.1579C80.7043 40.1812 80.6315 40.18 80.5729 40.1543L80.2686 40.2358C80.1565 40.2037 80.0726 40.1227 80.0171 39.9926L80.0026 39.9965L79.9638 39.8516L79.9928 39.8438L79.9151 39.5541L79.8861 39.5618L79.8279 39.3445L79.712 39.3756L79.6343 39.0858L79.6778 39.0741L79.6196 38.8568L79.6051 38.8607L79.5857 38.7882L79.7016 38.7572L79.6628 38.6123L79.6483 38.6162L79.6095 38.4713L79.3487 38.5412L79.271 38.2514L79.5028 38.1893L79.4252 37.8995L79.4397 37.8956L79.4203 37.8232L79.8549 37.7067L79.8355 37.6342L79.169 37.8128L79.1496 37.7404L79.5698 37.6278L79.4727 37.2656L79.2699 37.3199L79.2311 37.175L79.2166 37.1789L79.1778 37.034L79.5545 36.9331L79.5156 36.7882L77.8494 37.2347L77.7718 36.9449L77.7138 36.9604L77.6556 36.7431L77.8439 36.6926L77.8051 36.5477L78.3992 36.3886L78.3215 36.0988L78.6982 35.9978L78.6594 35.853L78.8767 35.7947L78.8379 35.6498L79.0697 35.5877L78.9921 35.2979L79.3253 35.2086L79.2671 34.9913L79.5859 34.9059L79.5082 34.6161L78.5375 34.8762L78.518 34.8038L78.1993 34.8892L78.1216 34.5994L77.4841 34.7702L77.4065 34.4805L79.0582 34.0379L79 33.8205L77.725 34.1622L77.6667 33.9449L78.3622 33.7585L78.3234 33.6136L78.2944 33.6214L78.2556 33.4765L78.1397 33.5076L78.0814 33.2902L77.4584 33.4572L77.3808 33.1674L79.641 32.5617L79.5634 32.272L80.0995 32.1283L80.0412 31.911L77.4332 32.6098L77.3556 32.32L79.0653 31.8619L79.0459 31.7895L77.6984 32.1505L77.679 32.0781L80.4174 31.3443L80.3397 31.0545L79.992 31.1477L79.9726 31.0753L76.5242 31.9993L76.4466 31.7095L76.8668 31.5969L76.8085 31.3796L77.7069 31.1389L77.6874 31.0664L78.1656 30.9383L78.1268 30.7934L77.866 30.8633L77.8465 30.7908L77.5423 30.8724L77.5035 30.7275L77.5324 30.7197L77.4975 30.5893C77.4923 30.57 77.4884 30.5555 77.4858 30.5459C77.4903 30.5239 77.4913 30.5082 77.4887 30.4985L77.5466 30.483C77.5406 30.2672 77.6438 30.1308 77.8563 30.0739L82.0291 28.9558C82.7729 28.7565 83.4762 28.6767 84.1391 28.7165L84.0811 28.7321C84.2705 28.7434 84.4686 28.768 84.6755 28.8058L84.6465 28.8135C84.6999 28.8199 84.7547 28.8311 84.8108 28.8471C84.8739 28.8509 84.9287 28.8621 84.9751 28.8808L85.2793 28.7992L85.4292 28.8367L85.6755 28.7707C85.7289 28.7771 85.774 28.7909 85.8108 28.8121C85.8572 28.8308 85.9023 28.8445 85.9461 28.8535L85.468 28.9816C85.4899 28.9861 85.5118 28.9906 85.5337 28.9951C85.5556 28.9996 85.574 29.0102 85.5888 29.0269L84.6905 29.2676L85.024 29.4112L84.5894 29.5276C84.7189 29.5861 84.8414 29.6568 84.9568 29.7398L88.4051 28.8158C88.4174 28.8229 88.4296 28.8299 88.4419 28.837C88.4541 28.8441 88.4677 28.856 88.4825 28.8727L88.8447 28.7756C88.8937 28.8039 88.9453 28.8419 88.9995 28.8895C89.051 28.9274 89.0978 28.9667 89.1397 29.0072L86.4013 29.7409C86.4136 29.748 86.4258 29.7551 86.438 29.7622C86.4503 29.7692 86.4638 29.7811 86.4787 29.7979L87.8261 29.4368L87.889 29.4976L86.1793 29.9557C86.2728 30.0342 86.3518 30.1165 86.4163 30.2028L89.0243 29.504ZM84.1815 31.8886C84.1003 31.8172 84.0084 31.7642 83.906 31.7295L82.7324 32.044C82.4785 31.9464 82.1969 31.939 81.8878 32.0218L81.0185 32.2548L81.0806 32.4866L81.7037 32.3196L81.7619 32.537L81.8778 32.5059L81.9166 32.6508L81.9456 32.643L81.9844 32.7879L81.289 32.9743L81.3472 33.1916L82.6222 32.85L82.6804 33.0673L81.0287 33.5099L81.1064 33.7997L81.7439 33.6288L81.8215 33.9186L82.1403 33.8332L82.1597 33.9057L83.1304 33.6455L83.2081 33.9353L82.8893 34.0207L82.9476 34.2381L82.6143 34.3274L82.692 34.6171L82.4601 34.6793L82.499 34.8241L82.2816 34.8824L82.3205 35.0273L81.9437 35.1282L82.0214 35.418L81.4273 35.5772L81.4662 35.722L81.2778 35.7725L81.336 35.9899L81.394 35.9743L81.4716 36.2641L83.1379 35.8176L83.1767 35.9625L82.8 36.0635L82.8388 36.2084L82.8533 36.2045L82.8921 36.3494L83.095 36.295L83.1493 36.4979L84.0911 36.2455C84.3712 36.1704 84.5897 36.0394 84.7467 35.8524L84.5149 35.9145C84.5387 35.8875 84.5625 35.8604 84.5863 35.8333C84.6075 35.7966 84.6239 35.7611 84.6354 35.7269L83.1286 36.1307C83.1427 36.1062 83.1569 36.0817 83.171 36.0572C83.1826 36.0231 83.1893 35.9902 83.1912 35.9586L84.9298 35.4928C84.944 35.4683 84.9533 35.4451 84.9578 35.4232C84.9597 35.3916 84.9616 35.36 84.9635 35.3285L85.2967 35.2392C85.3031 35.1857 85.3046 35.1335 85.3014 35.0826C85.2981 35.0318 85.2948 34.9809 85.2915 34.93L85.0742 34.9882C85.0735 34.947 85.0693 34.9119 85.0615 34.8829C85.0511 34.8443 85.0456 34.8043 85.0449 34.7631L84.5088 34.9068L84.5011 34.8778C84.4959 34.8585 84.4907 34.8392 84.4855 34.8198C84.49 34.7979 84.4897 34.7773 84.4845 34.758L84.4555 34.7658C84.4426 34.7175 84.4296 34.6692 84.4167 34.6209C84.4012 34.5629 84.3931 34.5133 84.3924 34.4721L84.6532 34.4022L84.6143 34.2573L84.7013 34.234L84.6769 34.0853L85.4883 33.8679L85.4107 33.5781L84.5558 33.8071L84.4976 33.5898L84.4396 33.6053L84.362 33.3156L84.5648 33.2612L84.5454 33.1888L84.0093 33.3324L83.9317 33.0426L83.6129 33.128C83.6 33.0797 83.5871 33.0314 83.5741 32.9831C83.5612 32.9348 83.5434 32.8878 83.5208 32.8421L84.8828 32.4772L84.8789 32.4627C84.8685 32.4241 84.8546 32.3916 84.8372 32.3652C84.8269 32.3265 84.8178 32.2927 84.81 32.2638L84.2739 32.4074C84.2539 32.3713 84.2352 32.3401 84.2178 32.3137C84.1978 32.2777 84.1778 32.2416 84.1578 32.2056L83.8535 32.2871C83.8361 32.2607 83.8199 32.2392 83.8051 32.2224C83.7877 32.1961 83.7715 32.1745 83.7567 32.1578L84.1479 32.0529C84.1305 32.0265 84.1095 32.0063 84.085 31.9921C84.0676 31.9658 84.0466 31.9455 84.0222 31.9313L84.1815 31.8886Z" fill="#968D89"/>
</svg>
