<svg width="620" height="70" viewBox="0 0 620 70" fill="none" xmlns="http://www.w3.org/2000/svg">
<path d="M95.056 46.536V47.016H102.544V47.976H102.16V49.416H82.288V49.896H85.744V51.336H96.304V52.296H90.832V54.216H90.544V54.696H84.208V56.136H93.616V56.616H94V58.056H94.96V59.976H76.432V61.416H96.016V62.376H89.488V63.816H88.624V64.776H90.832V65.736H89.392V66.696H92.752L92.464 67.656H96.976C96.848 67.848 96.688 68.04 96.496 68.232C96.368 68.36 96.208 68.488 96.016 68.616H98.224C97.904 68.872 97.456 69 96.88 69H78.064C77.488 69 77.04 68.872 76.72 68.616H74.512C74.064 68.424 73.744 68.104 73.552 67.656H69.04L68.752 66.696H65.392V65.736H66.832V64.776H64.624V63.816H65.488V62.376H72.016V61.416H54.64V62.376H46.672V63.816H52.144V64.776H50.8V65.736H55.792V66.696H50.416L50.128 67.656H52.24C51.984 68.104 51.696 68.424 51.376 68.616H49.072C48.752 68.872 48.304 69 47.728 69H28.912C28.272 69 27.792 68.872 27.472 68.616H29.776C29.456 68.424 29.168 68.104 28.912 67.656H26.704C26.512 67.336 26.416 67.016 26.416 66.696H31.792V65.736H26.8V64.776H28.144V63.816H22.672V62.376H30.64V61.416H35.248V59.976H20.464V58.056H25.936V56.616H29.776V56.136H27.088V54.696H22.576V54.216H23.536V52.296H26.608V51.336H28.048V49.896H21.136V49.416H38.896V47.976H17.2V47.016H37.648V46.536H27.664V45.096H33.424V44.616H34.576V44.136H34.096V42.216H24.592V40.776H27.76V40.296H26.896V38.856H27.28V38.376H27.376V37.416H27.472V36.936H26.224V36.456H22.48V35.016H23.728V33.576H21.808V32.136H26.608V30.216H25.552V29.256H18.544V28.776H29.776V27.816H32.464V27.336H6.54401V26.856H21.808V26.376H27.28V24.936H17.488V23.016H14.8V21.576H26.32V19.656H27.28V18.216H33.424V17.736H28.144V15.816H32.464V14.856H27.28V14.376H25.456V13.416H22.672V12.456H19.312V10.536H25.36V9.096H29.008V7.65599H27.28V6.696H24.88V6.216H26.224V5.256H25.936V4.392C25.936 3.944 26.032 3.592 26.224 3.336H32.368C32.432 3.144 32.528 2.984 32.656 2.856C32.784 2.664 32.912 2.504 33.04 2.376H47.824C48.208 1.992 48.752 1.8 49.456 1.8H86.32C86.96 1.8 87.504 1.992 87.952 2.376H102.736C102.864 2.504 102.992 2.664 103.12 2.856C103.312 2.984 103.44 3.144 103.504 3.336H91.12C91.248 3.72 91.312 4.072 91.312 4.392V5.256H91.792V6.216H93.136V6.696H90.544V7.65599H89.392V9.096H93.136V10.536H84.112V12.456H94.48V13.416H86.992V14.376H90.064V14.856H88.528V15.816H95.728V17.736H85.168V18.216H93.328V19.656H91.888V21.576H84.208V23.016H81.04V24.936H90.832V26.376H85.36V26.856H70.096V27.336H96.016V27.816H93.328V28.776H82.096V29.256H89.104V30.216H90.16V32.136H85.36V33.576H87.28V35.016H86.032V36.456H89.776V36.936H91.024V37.416H90.928V38.376H90.832V38.856H90.448V40.296H91.312V40.776H88.144V42.216H97.648V44.136H98.128V44.616H96.976V45.096H91.216V46.536H95.056ZM38.8 21.576V23.016H41.488V24.552H57.04V23.016H60.208V21.576H67.888V19.656H69.328V18.216H61.168V17.736H71.728V15.816H64.528V14.856H66.064V14.376H62.992V13.416H70.48V12.456H60.112V10.536H69.136V9.096H65.392V7.65599H66.544V6.696H69.136V6.216H67.792V5.256H67.312V4.392C67.312 4.072 67.376 3.72 67.504 3.336H79.888C80.016 3.144 80.144 2.984 80.272 2.856C80.4 2.664 80.528 2.504 80.656 2.376H55.12C55.44 2.632 55.696 2.952 55.888 3.336H49.744C49.872 3.528 49.936 3.88 49.936 4.392V5.256H50.224V6.216H48.88V6.696H51.28V7.65599H53.008V9.096H49.36V10.536H43.312V12.456H46.672V13.416H49.456V14.376H51.28V14.856H56.464V15.816H52.144V17.736H57.424V18.216H51.28V19.656H50.32V21.576H38.8ZM78.544 47.976V47.016H71.056V46.536H67.216V45.672H51.664V46.536H61.648V47.016H41.2V47.976H62.896V49.416H78.16V47.976H78.544ZM72.304 51.336H61.744V49.896H58.288V49.416H45.136V49.896H52.048V51.336H50.608V52.296H47.536V54.216H46.576V54.696H51.088V56.136H53.776V56.616H49.936V58.056H44.464V59.976H70.96V58.056H70V56.616H69.616V56.136H60.208V54.696H66.544V54.216H66.832V52.296H72.304V51.336Z" fill="#CB3131"/>
<path d="M169.788 63.816L170.46 65.736H168.828L169.02 66.216C169.02 66.28 169.02 66.376 169.02 66.504C169.084 66.568 169.116 66.632 169.116 66.696H168.54V66.888C168.54 67.656 168.252 68.232 167.676 68.616H167.772C167.452 68.872 167.036 69 166.524 69H148.764C148.316 69 147.932 68.968 147.612 68.904C147.356 68.776 147.068 68.68 146.748 68.616C146.236 68.36 145.852 68.072 145.596 67.752C145.34 67.368 145.148 67.016 145.02 66.696H145.5V66.6L145.308 66.216L145.116 65.736H146.748L146.076 63.816H144.252L143.964 62.856H147.9L147.228 60.936H146.076L145.788 60.264H125.148L124.956 60.936H123.804L123.132 62.856H122.076L121.692 63.816H121.116L120.444 65.736H120.54L120.348 66.216L120.252 66.6L120.156 66.696H119.676C119.548 67.016 119.356 67.368 119.1 67.752C118.844 68.072 118.46 68.36 117.948 68.616H120.828C120.572 68.68 120.284 68.776 119.964 68.904C119.644 68.968 119.26 69 118.812 69H101.052C100.54 69 100.156 68.872 99.9003 68.616H97.0203C96.3803 68.168 96.0603 67.592 96.0603 66.888V66.696H96.6363C96.6363 66.504 96.6683 66.344 96.7323 66.216L96.8283 65.736H96.7323L97.4043 63.816H97.9803L98.3643 62.856H99.4203L100.092 60.936H101.148L101.82 59.016H98.0763L98.4603 58.056H98.1723L98.6523 56.616H99.6123L99.8043 56.136H97.6923L98.3643 54.216H101.628L101.916 53.256H98.9403L99.1323 52.776H99.6123L100.284 50.856H99.9963L100.476 49.416H100.86L101.532 47.496H102.78L103.26 46.056L103.452 45.576H108.252L108.444 45.096H108.156L108.636 43.656H103.26L103.932 41.736H105.66L105.852 41.256H104.796L104.988 40.776H108.06L108.732 38.856H104.988L105.372 37.896H106.812L107.484 35.976H106.62L107.1 34.536H108.156L108.828 32.616H108.54L108.732 32.136H106.524L106.908 31.176H109.02L109.5 29.736H108.54L108.636 29.256H110.364L111.036 27.336H108.924L109.404 25.896H108.348L108.636 24.936H102.012L102.3 23.976H101.052L101.724 22.056H100.476L101.052 20.616H104.796L105.468 18.696H115.068L115.548 17.256H110.94L111.324 16.296H114.876L115.548 14.376H112.38L112.86 12.936H114.876L115.548 11.016H115.26L115.932 9.096H113.244L113.34 8.616H122.556L123.228 6.696H122.94L123.132 6.216H119.772L120.156 4.96799L120.444 4.296H121.404L121.98 3.336H121.692C122.012 2.888 122.46 2.536 123.036 2.27999C123.612 1.96 124.316 1.8 125.148 1.8H145.98C146.812 1.8 147.516 1.96 148.092 2.27999C148.668 2.536 149.116 2.888 149.436 3.336H149.82L150.396 4.296H149.436C149.564 4.552 149.628 4.776 149.628 4.96799L150.108 6.216H153.468L153.564 6.696H153.852L154.524 8.616H145.404L145.596 9.096H148.284L148.956 11.016H149.244L149.916 12.936H147.9L148.38 14.376H151.548L152.22 16.296H148.668L149.052 17.256H153.66L154.14 18.696H144.54L145.212 20.616H141.468L141.948 22.056H143.1L143.772 23.976H140.028L140.412 24.936H155.676L155.964 25.896H155.196L155.676 27.336H153.756L154.428 29.256H152.124L152.22 29.736H155.676L156.156 31.176H156.252L156.636 32.136H153.468L153.66 32.616H156.732L157.404 34.536H158.46L158.94 35.976H158.652L159.324 37.896H160.86L161.244 38.856H158.46L159.132 40.776H161.052L161.148 41.256H160.668L160.86 41.736H159.132L159.708 43.656H165.18L165.66 45.096H165.948L166.14 45.576H161.244L161.436 46.056H161.532L162.012 47.496H160.764L161.436 49.416H160.956L161.532 50.856H161.82L162.492 52.776H162.012L162.204 53.256H165.18L165.564 54.216H162.204L162.876 56.136H164.988L165.18 56.616H164.22L164.796 58.056H164.988L165.372 59.016H169.116L169.788 60.936H170.94L171.612 62.856H167.676L167.964 63.816H169.788ZM129.66 25.896H130.812L130.332 27.336H134.268L133.788 25.896H134.556L134.268 24.936H129.948L129.66 25.896ZM132.828 29.256L132.348 27.624L131.868 29.256H132.828ZM127.068 40.776L126.876 41.256H127.932L127.836 41.544H138.684L138.588 41.256H139.068L138.972 40.776H137.052L136.476 38.856H139.26L138.972 37.896H137.34L136.764 35.976H137.052L136.668 34.536H135.612L135.036 32.616H131.964L131.772 32.136H134.94L134.652 31.176H134.556L134.076 29.736H131.004L130.62 31.176H128.508L128.22 32.136H130.332L130.236 32.616H130.524L129.948 34.536H128.892L128.412 35.976H129.276L128.7 37.896H127.26L126.972 38.856H130.716L130.14 40.776H127.068Z" fill="#CB3131"/>
<path d="M248.151 23.016V23.496H245.847C245.911 23.816 245.943 24.136 245.943 24.456C245.943 24.776 245.943 25.096 245.943 25.416H229.143C229.143 26.248 228.727 26.888 227.895 27.336C227.511 27.464 227.223 27.528 227.031 27.528H207.447C207.191 27.528 206.935 27.528 206.679 27.528C206.423 27.464 206.167 27.4 205.911 27.336H190.263V27.816H198.711C198.647 28.136 198.615 28.456 198.615 28.776C198.615 29.096 198.615 29.416 198.615 29.736H195.255C195.191 29.864 195.159 30.024 195.159 30.216C195.159 30.408 195.159 30.568 195.159 30.696H195.447V31.656H194.007V33.576H198.615V34.056H183.063V35.016H187.959V36.936H197.847V37.416H193.815V37.896H191.223V39.816H198.615C198.679 40.072 198.711 40.328 198.711 40.584C198.711 40.776 198.711 41 198.711 41.256H201.399V41.736H189.015V42.696H186.231V43.176H198.711V43.272H217.911C219.127 43.272 219.831 43.88 220.023 45.096H234.231V46.536H233.559L233.367 48.456H232.311L232.215 49.416H234.711C234.711 49.608 234.679 49.768 234.615 49.896H234.039C233.975 50.024 233.943 50.184 233.943 50.376H237.111L236.823 51.816H233.847C233.847 51.88 233.815 51.944 233.751 52.008C233.751 52.072 233.751 52.168 233.751 52.296H232.983C232.919 52.552 232.823 52.808 232.695 53.064C232.631 53.256 232.567 53.48 232.503 53.736H233.655C233.655 53.8 233.591 53.96 233.463 54.216H231.543C231.415 54.536 231.255 54.856 231.063 55.176C230.935 55.496 230.775 55.816 230.583 56.136H232.503L231.639 57.576H232.503L231.543 59.016H230.967C230.711 59.336 230.423 59.656 230.103 59.976C229.847 60.296 229.559 60.616 229.239 60.936H228.471C228.407 61 228.343 61.064 228.279 61.128C228.215 61.192 228.119 61.288 227.991 61.416H223.863L223.383 61.896H242.679C242.295 62.216 241.911 62.536 241.527 62.856C241.143 63.176 240.727 63.496 240.279 63.816H239.223C238.583 64.264 237.815 64.744 236.919 65.256H216.663C216.023 65.64 215.351 65.992 214.647 66.312C213.943 66.568 213.239 66.856 212.535 67.176H228.375C228.183 67.24 227.959 67.304 227.703 67.368C227.511 67.432 227.287 67.528 227.031 67.656H223.191C222.935 67.72 222.679 67.784 222.423 67.848C222.167 67.912 221.911 68.008 221.655 68.136H214.743C212.439 68.776 210.071 69.256 207.639 69.576H209.175C208.151 69.704 207.095 69.8 206.007 69.864C204.919 69.928 203.831 69.96 202.743 69.96C201.527 69.96 200.343 69.928 199.191 69.864C198.103 69.8 197.015 69.704 195.927 69.576H194.391C191.831 69.256 189.463 68.776 187.287 68.136H194.199C193.943 68.008 193.687 67.912 193.431 67.848C193.239 67.784 193.015 67.72 192.759 67.656H196.695L195.351 67.176H179.511C178.871 66.856 178.199 66.568 177.495 66.312C176.855 65.992 176.215 65.64 175.575 65.256H195.927C195.543 65 195.159 64.776 194.775 64.584C194.391 64.328 194.039 64.072 193.719 63.816H194.775C194.007 63.24 193.271 62.6 192.567 61.896H173.175C173.111 61.768 173.047 61.672 172.983 61.608C172.919 61.544 172.823 61.48 172.695 61.416H176.919C176.855 61.288 176.759 61.192 176.631 61.128C176.567 61.064 176.503 61 176.439 60.936H177.207C176.631 60.296 176.087 59.656 175.575 59.016H176.151L175.287 57.576H174.423L173.559 56.136H171.639L170.775 54.216H172.791L172.599 53.736H171.351C171.287 53.48 171.223 53.256 171.159 53.064C171.095 52.808 170.999 52.552 170.871 52.296H171.639L171.447 51.816H174.423C174.359 51.56 174.295 51.336 174.231 51.144C174.167 50.888 174.103 50.632 174.039 50.376H172.503C172.439 50.248 172.407 50.088 172.407 49.896H170.775C170.711 49.768 170.679 49.608 170.679 49.416H170.775C170.775 49.16 170.711 48.84 170.583 48.456H165.111L164.823 46.536H172.215C172.151 46.28 172.119 46.056 172.119 45.864C172.119 45.608 172.087 45.352 172.023 45.096H173.847C173.847 44.904 173.847 44.712 173.847 44.52C173.847 44.328 173.815 44.136 173.751 43.944V43.176H161.271V42.696H164.055V41.736H176.439V41.256H173.751C173.751 41 173.719 40.776 173.655 40.584C173.655 40.328 173.655 40.072 173.655 39.816H166.263V37.896H168.855V37.416H172.887V36.936H162.999V35.016H158.103V34.056H173.655V33.576H169.047V31.656H170.487V30.696H170.199V29.736H173.655V27.816H165.303V27.336H183.735V26.856C183.799 26.6 183.831 26.376 183.831 26.184C183.831 25.928 183.831 25.672 183.831 25.416H178.743C178.743 25.096 178.743 24.776 178.743 24.456C178.807 24.136 178.871 23.816 178.935 23.496H182.007C182.071 23.368 182.103 23.208 182.103 23.016H162.231C162.295 22.888 162.327 22.728 162.327 22.536C162.327 22.344 162.359 22.184 162.423 22.056H179.895L180.375 20.136H176.439L176.727 19.176H170.295L170.487 18.696H172.599C172.663 18.568 172.727 18.408 172.791 18.216C172.855 18.024 172.919 17.864 172.983 17.736H171.927L172.311 16.776H172.791C172.919 16.52 173.047 16.296 173.175 16.104C173.303 15.848 173.399 15.592 173.463 15.336H173.559L174.423 13.896H174.135C174.263 13.64 174.391 13.416 174.519 13.224C174.711 12.968 174.903 12.712 175.095 12.456H174.327C174.583 12.136 174.839 11.816 175.095 11.496C175.351 11.112 175.607 10.792 175.863 10.536H174.999C175.063 10.408 175.127 10.312 175.191 10.248C175.255 10.184 175.319 10.12 175.383 10.056H174.423L174.903 9.576H174.711C174.839 9.448 174.935 9.352 174.999 9.288C175.063 9.224 175.127 9.16 175.191 9.096H173.463C173.591 8.968 173.751 8.808 173.943 8.616C174.135 8.424 174.327 8.264 174.519 8.136H176.823C177.143 7.88 177.463 7.656 177.783 7.464C178.103 7.208 178.423 6.952 178.743 6.696H177.687L178.455 6.216H176.823C176.951 6.088 177.079 5.992 177.207 5.928C177.335 5.864 177.463 5.8 177.591 5.736H182.583C183.031 5.48 183.479 5.256 183.927 5.064C184.375 4.808 184.823 4.552 185.271 4.296H184.983C185.367 4.104 185.751 3.944 186.135 3.816C186.519 3.624 186.903 3.464 187.287 3.336H189.111C189.303 3.208 189.495 3.112 189.687 3.048C189.943 2.984 190.199 2.92 190.455 2.856H187.575C189.495 2.152 191.543 1.672 193.719 1.41599H196.311C198.807 1.032 201.431 0.839996 204.183 0.839996C206.871 0.839996 209.463 1.032 211.959 1.41599H209.463C211.575 1.672 213.687 2.152 215.799 2.856H218.679C218.935 2.92 219.159 2.984 219.351 3.048C219.607 3.112 219.863 3.208 220.119 3.336H218.295C219.255 3.656 220.055 3.976 220.695 4.296H220.983C221.495 4.552 221.975 4.808 222.423 5.064C222.871 5.256 223.319 5.48 223.767 5.736H218.871C218.999 5.8 219.127 5.864 219.255 5.928C219.383 5.992 219.511 6.088 219.639 6.216H221.271C221.399 6.27999 221.527 6.344 221.655 6.408C221.783 6.472 221.879 6.568 221.943 6.696H222.999L224.919 8.136H222.519L223.671 9.096H225.399L225.975 9.576H226.071L226.551 10.056H227.511L227.991 10.536H228.855C229.111 10.792 229.367 11.112 229.623 11.496C229.879 11.816 230.135 12.136 230.391 12.456H231.063C231.255 12.712 231.415 12.968 231.543 13.224C231.735 13.416 231.895 13.64 232.023 13.896H232.311C232.439 14.152 232.567 14.408 232.695 14.664C232.823 14.856 232.951 15.08 233.079 15.336H232.887C233.015 15.592 233.143 15.848 233.271 16.104C233.399 16.296 233.495 16.52 233.559 16.776H233.079L233.367 17.736H234.423L234.711 18.696H232.599C232.599 18.76 232.599 18.824 232.599 18.888C232.663 18.952 232.695 19.048 232.695 19.176H239.127C239.127 19.432 239.191 19.752 239.319 20.136H230.583L230.871 22.056H236.439L236.535 23.016H248.151ZM204.087 20.136H210.903C209.879 19.752 208.727 19.56 207.447 19.56C206.167 19.56 205.047 19.752 204.087 20.136ZM220.695 24.744C220.631 24.488 220.567 24.264 220.503 24.072C220.439 23.88 220.343 23.688 220.215 23.496H222.519L222.231 23.016H210.711C210.647 22.824 210.551 22.664 210.423 22.536C210.295 22.344 210.167 22.184 210.039 22.056H188.247C188.183 22.184 188.087 22.344 187.959 22.536C187.895 22.664 187.799 22.824 187.671 23.016H207.543L207.351 23.496H204.279C204.151 23.752 204.055 24.072 203.991 24.456C203.927 24.776 203.863 25.096 203.799 25.416H220.983L220.695 24.744ZM209.367 45.096H197.079L197.367 46.536H189.975C190.103 46.92 190.231 47.272 190.359 47.592C190.487 47.848 190.647 48.136 190.839 48.456H196.311C196.439 48.648 196.567 48.84 196.695 49.032C196.823 49.16 196.951 49.288 197.079 49.416H196.887L197.367 49.896H198.999C199.127 49.96 199.255 50.056 199.383 50.184C199.511 50.248 199.639 50.312 199.767 50.376H201.303C202.391 50.952 203.703 51.24 205.239 51.24C206.775 51.24 208.055 50.952 209.079 50.376H205.911L206.679 49.896H207.255L207.831 49.416H205.335C205.463 49.288 205.591 49.16 205.719 49.032C205.911 48.84 206.039 48.648 206.103 48.456H207.159C207.543 47.88 207.863 47.24 208.119 46.536H208.791L208.983 46.056C209.111 45.672 209.239 45.352 209.367 45.096Z" fill="#CB3131"/>
<path d="M308.862 63.816L310.014 65.736H305.79L305.885 65.832C305.949 65.896 305.982 66.024 305.982 66.216C306.046 66.408 306.11 66.568 306.174 66.696H305.885V66.888C305.885 67.144 305.854 67.368 305.79 67.56C305.726 67.752 305.63 67.944 305.502 68.136H306.75C306.622 68.328 306.462 68.488 306.27 68.616H300.702C300.382 68.872 299.966 69 299.454 69H277.566C277.182 69 276.83 68.968 276.51 68.904C276.19 68.776 275.902 68.68 275.646 68.616H281.214C281.021 68.552 280.734 68.392 280.35 68.136H279.102C278.782 67.88 278.525 67.624 278.333 67.368C278.205 67.112 278.078 66.92 277.95 66.792L277.854 66.696H278.142L277.661 65.736H281.79L280.734 63.816H289.374L289.086 63.336H281.598L281.501 63.144V63.336H266.526V63.816H276.51V65.736H270.366V66.696H261.053C261.053 66.952 260.99 67.208 260.862 67.464C260.734 67.72 260.606 67.944 260.478 68.136H259.613C259.357 68.392 259.166 68.552 259.038 68.616H252.798C252.478 68.872 252.03 69 251.454 69H233.118C232.542 69 232.094 68.872 231.774 68.616H237.918C237.79 68.552 237.598 68.392 237.342 68.136H238.206C238.078 67.944 237.95 67.72 237.822 67.464C237.694 67.208 237.63 66.952 237.63 66.696H246.846V65.736H252.99V63.816H243.006V63.336H257.982V61.896H239.646V60.456H241.374V58.536H242.91V57.576H242.622V55.656H242.43V53.736H241.662V52.296H242.238V51.336H243.294V49.416H246.75V47.976H234.558V47.016H233.694V46.536H244.638V45.576H245.598V45.096H233.118V43.656H234.75V42.696H235.326V40.776H244.734V39.816H247.326V38.376H235.23V36.456H238.494V35.016H242.718V34.536H249.15V33.576H252.51V32.136H253.182V31.656H251.166V30.216H244.734V29.736H240.222V27.816H258.174V26.856H236.094V25.896H252.702V24.456H236.67V23.496H242.91V22.536H248.862V20.616H246.942V19.176H247.518V17.736H244.734V17.256H242.718V15.816H242.142V15.336H243.39V14.376H244.638V12.456H234.078V11.976H234.654V11.496H238.59V11.016H237.246V10.536H244.638V10.056H242.814V9.576H242.718V7.65599H243.198V6.696H249.822V5.736H250.686V4.776H251.07V4.296H240.798C240.862 3.592 241.182 2.952 241.758 2.376H242.814C243.198 1.992 243.742 1.8 244.446 1.8H262.781C263.421 1.8 263.966 1.992 264.414 2.376H263.358C263.998 2.888 264.318 3.528 264.318 4.296H274.59V4.776H274.206V5.736H273.342V6.696H266.717V7.65599H266.238V9.576H266.333V10.056H268.158V10.536H260.766V11.016H262.109V11.496H258.174V11.976H257.598V12.456H266.622L266.91 11.976H269.982L270.174 11.496H275.742L276.03 11.016H270.462L270.75 10.536H272.382L272.669 10.056H273.15L273.438 9.576H274.302L274.493 9.096H275.549L276.318 7.65599H275.837L276.414 6.696H281.885L282.366 5.736H277.95L278.43 4.776H283.23L283.422 4.296H276.893L277.086 3.912C277.406 3.272 277.886 2.76 278.526 2.376H277.758C278.334 1.992 279.102 1.8 280.062 1.8H301.277C301.853 1.8 302.333 1.992 302.717 2.376H303.582C304.03 2.824 304.254 3.336 304.254 3.912C304.254 4.104 304.222 4.232 304.158 4.296H310.782C310.782 4.36 310.75 4.424 310.686 4.488C310.686 4.552 310.686 4.648 310.686 4.776H305.982L305.79 4.96799L305.406 5.736H309.822L309.246 6.696H303.773L303.198 7.65599H303.678L302.814 9.096H301.854L301.566 9.576H300.702L300.414 10.056H299.934L299.646 10.536H297.918L297.63 11.016H303.294L303.006 11.496H297.438L297.15 11.976H294.078L293.79 12.456H294.366L293.31 14.376H297.15L296.574 15.336H297.438L297.15 15.816H297.246L296.382 17.256H297.726L297.438 17.736H297.534L296.67 19.176H294.75L293.885 20.616H295.902L294.75 22.536H293.694L293.118 23.496H286.878L286.302 24.456H302.334L301.47 25.896H284.862L284.286 26.856H306.366L305.79 27.816H287.838L286.686 29.736H291.198L290.91 30.216H297.342L296.478 31.656H298.493L298.206 32.136H297.534L296.67 33.576H293.31L293.118 33.96L293.502 34.536H287.07L287.358 35.016H283.134L283.997 36.456H280.638L281.79 38.376H293.885L294.75 39.816H292.158L292.734 40.776H283.326L284.478 42.696H283.902L284.478 43.656H282.846L283.71 45.096H296.19L296.478 45.576H295.422L295.997 46.536H293.31L293.598 47.016H292.638L293.214 47.976H286.109L286.974 49.416H295.23L296.382 51.336H296.19L296.766 52.296H297.534L298.398 53.736H300.126L301.277 55.656H299.549L300.702 57.576H300.798L301.277 58.536H301.47L302.622 60.456H303.198L304.062 61.896H308.862L309.726 63.336H317.214L317.502 63.816H308.862ZM266.238 17.256H268.254V17.736H270.462L270.75 17.256H269.406L270.174 15.816H270.078L270.366 15.336H269.501L269.982 14.376H266.91V15.336H265.661V15.816H266.238V17.256ZM266.91 22.536H266.43V23.4L266.91 22.536ZM268.158 46.536H268.445L268.158 45.864V46.536ZM257.214 47.016H258.078V47.976H265.661L265.086 47.016H266.046L265.758 46.536H257.214V47.016ZM263.165 61.896H276.03L275.262 60.456H274.59L273.534 58.536H273.342L272.862 57.576H272.766L271.71 55.656H273.438L272.382 53.736H270.654L269.79 52.296H269.022L268.542 51.336H268.734L267.582 49.416H266.814V51.336H265.758V52.296H265.182V53.736H265.95V55.656H266.142V57.576H266.43V58.536H264.893V60.456H263.165V61.896Z" fill="#CB3131"/>
<path d="M374.703 10.536H356.846V12.456H363.663V13.896H371.055V15.336H370.863V16.776H373.647V18.696H363.182V19.176H361.167V19.848C361.167 20.296 361.071 20.712 360.879 21.096H367.695C367.247 21.992 366.511 22.44 365.487 22.44H349.551V22.536H350.51V24.456H350.703V26.376H350.223V28.296H348.975V29.736H353.775V30.696H349.743V32.136H347.631V34.056H351.279V35.016H350.607V36.936H349.935V38.856H348.783V40.776H347.727V42.216H351.279V43.656H349.839V45.576H350.415V46.056H351.087V47.016H355.887V48.456H352.622V50.376H354.062V52.296H350.031V54.216H351.663V55.176H352.335V56.616H353.871V58.536H353.294V59.976H350.799V61.416H350.51V62.376H350.415V63.816H351.471V65.256H350.607V66.408C350.607 66.728 350.574 66.984 350.51 67.176H349.551C349.359 67.816 349.007 68.296 348.495 68.616H348.687C348.367 68.872 347.918 69 347.342 69H328.143C327.631 69 327.151 68.872 326.703 68.616H326.51C326.062 68.296 325.71 67.816 325.454 67.176H326.319C326.255 66.984 326.223 66.728 326.223 66.408V65.256H327.087V63.816H326.031V62.376H326.126V61.416H326.415V59.976H328.911V58.536H329.487V56.616H327.951V55.176H327.279V54.216H325.647V52.296H329.678V50.376H328.238V48.456H331.503V47.016H326.703V46.056H326.031V45.576H325.454V43.656H326.895V42.216H323.342V40.776H324.398V38.856H325.551V36.936H326.223V35.016H326.895V34.056H323.247V32.136H325.359V30.696H329.391V29.736H324.591V28.296H325.839V26.376H326.319V24.456H326.126V22.536H325.167V22.44H309.23C308.27 22.44 307.503 21.992 306.927 21.096H300.111C300.047 20.904 299.983 20.712 299.919 20.52C299.791 20.328 299.727 20.104 299.727 19.848V19.176H301.742V18.696H312.207V16.776H309.423V15.336H309.615V13.896H302.223V12.456H295.406V10.536H313.263V9.096H303.279V7.17599H305.199V5.256H307.695V4.776H309.135V4.392C309.135 3.752 309.327 3.24 309.711 2.856H307.599C308.111 2.152 308.815 1.8 309.711 1.8H365.967C366.863 1.8 367.567 2.152 368.079 2.856H370.095C370.415 3.304 370.575 3.816 370.575 4.392V4.776H369.135V5.256H366.639V7.17599H364.719V9.096H374.703V10.536Z" fill="#CB3131"/>
<path d="M436.526 32.136H441.326V34.056H440.462V35.976H439.598V37.416H437.582V37.896H438.35V38.376H435.662V39.336H440.27V40.776H437.486V41.256H437.582C437.582 41.576 437.55 41.896 437.486 42.216C437.486 42.536 437.486 42.856 437.486 43.176H437.39C437.326 43.368 437.294 43.656 437.294 44.04V45.096H436.814C436.75 45.224 436.718 45.384 436.718 45.576C436.718 45.768 436.718 45.928 436.718 46.056H437.678L437.39 47.976H436.526C436.462 48.296 436.398 48.616 436.334 48.936C436.334 49.256 436.27 49.576 436.142 49.896H437.198C437.198 49.96 437.166 50.024 437.102 50.088C437.102 50.152 437.102 50.248 437.102 50.376H438.542C438.542 50.44 438.51 50.504 438.446 50.568C438.446 50.632 438.446 50.728 438.446 50.856H436.718C436.654 51.112 436.59 51.368 436.526 51.624C436.462 51.816 436.398 52.04 436.334 52.296H436.046L435.47 53.736H434.414C434.35 53.992 434.254 54.248 434.126 54.504C433.998 54.696 433.87 54.92 433.742 55.176H434.606C434.478 55.496 434.318 55.816 434.126 56.136H433.55C433.486 56.392 433.358 56.648 433.166 56.904C433.038 57.096 432.91 57.32 432.782 57.576H435.758L435.086 58.536H431.534L430.478 59.976H431.534L430.19 61.416H431.246C431.182 61.48 431.086 61.544 430.958 61.608C430.894 61.672 430.83 61.768 430.766 61.896H431.918C431.726 62.024 431.534 62.184 431.342 62.376C431.214 62.568 431.054 62.728 430.862 62.856H429.038C428.846 62.984 428.654 63.144 428.462 63.336C428.27 63.528 428.046 63.688 427.79 63.816H428.462C428.27 63.944 428.046 64.104 427.79 64.296C427.598 64.488 427.374 64.648 427.118 64.776H426.926C426.35 65.096 425.774 65.416 425.198 65.736C424.622 66.056 424.014 66.376 423.374 66.696H423.086C422.894 66.76 422.702 66.824 422.51 66.888C422.318 66.952 422.126 67.048 421.934 67.176C421.486 67.368 421.038 67.56 420.59 67.752C420.206 67.88 419.758 68.008 419.246 68.136H419.15C417.038 68.776 414.734 69.256 412.238 69.576H412.334C411.31 69.704 410.222 69.8 409.07 69.864C407.982 69.928 406.894 69.96 405.806 69.96C404.654 69.96 403.534 69.928 402.446 69.864C401.358 69.8 400.27 69.704 399.182 69.576C396.75 69.32 394.414 68.84 392.174 68.136H392.27C391.822 68.008 391.374 67.88 390.926 67.752C390.478 67.56 390.03 67.368 389.582 67.176H389.486C389.294 67.048 389.102 66.952 388.91 66.888C388.718 66.824 388.526 66.76 388.334 66.696H388.622C387.982 66.376 387.374 66.056 386.798 65.736C386.222 65.416 385.646 65.096 385.07 64.776H385.262L383.822 63.816H383.246C382.99 63.688 382.766 63.528 382.574 63.336C382.382 63.144 382.19 62.984 381.998 62.856H383.822L382.67 61.896H381.518C381.454 61.768 381.39 61.672 381.326 61.608C381.262 61.544 381.166 61.48 381.038 61.416H380.078C379.822 61.16 379.566 60.936 379.31 60.744C379.118 60.488 378.926 60.232 378.734 59.976H377.678L376.526 58.536H380.078L379.502 57.576H376.43C376.302 57.32 376.174 57.096 376.046 56.904C375.918 56.648 375.79 56.392 375.662 56.136H376.238C376.046 55.816 375.886 55.496 375.758 55.176H374.894C374.766 54.92 374.638 54.696 374.51 54.504C374.446 54.248 374.35 53.992 374.222 53.736H375.374L374.798 52.296H375.086C375.022 52.04 374.958 51.816 374.894 51.624C374.83 51.368 374.766 51.112 374.702 50.856H375.758C375.694 50.728 375.662 50.568 375.662 50.376H374.702C374.702 50.248 374.67 50.152 374.606 50.088C374.606 50.024 374.606 49.96 374.606 49.896H374.414C374.35 49.576 374.286 49.256 374.222 48.936C374.158 48.616 374.094 48.296 374.03 47.976H374.51C374.446 47.656 374.382 47.336 374.318 47.016C374.318 46.696 374.318 46.376 374.318 46.056H373.742L373.646 45.096H374.318V44.04C374.318 43.912 374.286 43.784 374.222 43.656C374.222 43.464 374.222 43.304 374.222 43.176H372.974C372.91 42.856 372.878 42.536 372.878 42.216C372.878 41.896 372.878 41.576 372.878 41.256H373.55V40.776H373.262V39.336H375.182V38.376H371.822V37.896H373.646V37.416H373.55V35.976H373.07V34.056H373.646V32.136H372.974V30.696H369.422V28.776H373.55C373.614 28.648 373.646 28.488 373.646 28.296H375.182V27.816H374.03V26.856H374.126L374.318 24.936H374.126C374.126 24.68 374.126 24.456 374.126 24.264C374.19 24.008 374.254 23.752 374.318 23.496H374.03C374.03 23.24 374.03 23.016 374.03 22.824C374.094 22.568 374.158 22.312 374.222 22.056H374.03C374.094 21.8 374.158 21.576 374.222 21.384C374.286 21.128 374.35 20.872 374.414 20.616H371.726C371.726 20.488 371.726 20.392 371.726 20.328C371.79 20.264 371.822 20.2 371.822 20.136H374.702L374.99 19.176H374.798L374.99 18.696H376.43C376.494 18.568 376.558 18.408 376.622 18.216C376.686 18.024 376.75 17.864 376.814 17.736H375.854C376.046 17.16 376.302 16.52 376.622 15.816H376.334C376.526 15.496 376.686 15.176 376.814 14.856C377.006 14.472 377.198 14.152 377.39 13.896H377.678L377.966 13.416H376.43L376.718 12.936H378.254L378.542 12.456H378.35L379.502 11.016H378.83L380.078 9.576C380.398 9.256 380.718 8.936 381.038 8.616C381.422 8.232 381.806 7.91199 382.19 7.65599H381.23L381.806 7.17599H380.75C380.878 7.048 380.974 6.952 381.038 6.888C381.166 6.824 381.294 6.76 381.422 6.696H383.822C384.078 6.568 384.334 6.408 384.59 6.216C384.846 6.024 385.102 5.864 385.358 5.736H385.646C386.286 5.416 386.926 5.096 387.566 4.776C388.206 4.392 388.846 4.072 389.486 3.816H389.774C391.054 3.24 392.462 2.76 393.998 2.376H394.478C396.334 1.864 398.286 1.48 400.334 1.224C402.382 0.967997 404.494 0.839996 406.67 0.839996C411.214 0.839996 415.246 1.352 418.766 2.376H418.19C418.894 2.568 419.598 2.792 420.302 3.048C421.006 3.24 421.678 3.496 422.318 3.816H421.934C422.638 4.072 423.278 4.392 423.854 4.776C424.494 5.096 425.134 5.416 425.774 5.736H425.39L426.83 6.696H424.43C424.558 6.76 424.654 6.824 424.718 6.888C424.846 6.952 424.974 7.048 425.102 7.17599H426.158C426.286 7.24 426.414 7.304 426.542 7.368C426.67 7.432 426.766 7.528 426.83 7.65599H427.79C428.174 7.91199 428.526 8.232 428.846 8.616C429.23 8.936 429.582 9.256 429.902 9.576H429.998C430.254 9.832 430.478 10.088 430.67 10.344C430.862 10.536 431.054 10.76 431.246 11.016H431.918L433.07 12.456H433.262C433.454 12.648 433.582 12.808 433.646 12.936H432.11L432.398 13.416H434.03L434.318 13.896H434.03C434.222 14.152 434.382 14.472 434.51 14.856C434.702 15.176 434.894 15.496 435.086 15.816H435.374L436.238 17.736H437.198L437.486 18.696H436.046L436.238 19.176H436.43L436.718 20.136H436.43C436.43 20.2 436.43 20.264 436.43 20.328C436.494 20.392 436.526 20.488 436.526 20.616H432.494C432.622 20.872 432.686 21.128 432.686 21.384C432.75 21.576 432.814 21.8 432.878 22.056H437.87C437.934 22.312 437.966 22.568 437.966 22.824C438.03 23.016 438.062 23.24 438.062 23.496H436.718C436.782 23.752 436.814 24.008 436.814 24.264C436.878 24.456 436.91 24.68 436.91 24.936H438.158L438.35 26.856H437.102V27.144C437.102 27.208 437.102 27.304 437.102 27.432C437.166 27.56 437.198 27.688 437.198 27.816H439.79V28.296H437.486C437.55 28.424 437.582 28.584 437.582 28.776H439.31C439.374 29.096 439.406 29.416 439.406 29.736C439.406 30.056 439.406 30.376 439.406 30.696H436.526V32.136ZM415.502 34.056H416.366V32.136H411.566V30.696H414.446C414.446 30.376 414.446 30.056 414.446 29.736C414.446 29.416 414.414 29.096 414.35 28.776H412.622C412.622 28.648 412.59 28.552 412.526 28.488C412.526 28.424 412.526 28.36 412.526 28.296H414.83V27.816H412.238C412.238 27.688 412.206 27.592 412.142 27.528C412.142 27.464 412.142 27.4 412.142 27.336V26.856H413.294C413.294 26.536 413.262 26.216 413.198 25.896C413.198 25.512 413.166 25.192 413.102 24.936H411.854C411.79 24.68 411.726 24.456 411.662 24.264C411.598 24.008 411.502 23.752 411.374 23.496H412.718C412.526 22.984 412.27 22.504 411.95 22.056H406.958C406.638 21.544 406.126 21.064 405.422 20.616H409.454C409.07 20.36 408.782 20.2 408.59 20.136H408.878C407.918 19.752 406.862 19.56 405.71 19.56C404.558 19.56 403.502 19.752 402.542 20.136H399.758C399.502 20.2 399.182 20.36 398.798 20.616H401.486C400.974 20.936 400.462 21.416 399.95 22.056H400.142C399.822 22.504 399.566 22.984 399.374 23.496H399.662C399.598 23.752 399.534 24.008 399.47 24.264C399.406 24.456 399.31 24.68 399.182 24.936H399.374C399.31 25.192 399.246 25.512 399.182 25.896C399.182 26.216 399.182 26.536 399.182 26.856H398.99V27.816H400.142V28.296H398.606V28.776H394.382V30.696H397.934V32.136H398.606V34.056H398.03V35.976H398.51V37.416H398.606C398.606 37.608 398.638 37.768 398.702 37.896H396.782V38.376H400.142V39.336H398.222V40.776H398.51V41.256H397.838C397.838 41.576 397.838 41.896 397.838 42.216C397.902 42.536 397.934 42.856 397.934 43.176H399.278V43.464C399.278 43.72 399.278 44.008 399.278 44.328C399.278 44.584 399.31 44.84 399.374 45.096H398.702C398.766 45.224 398.798 45.384 398.798 45.576C398.798 45.768 398.83 45.928 398.894 46.056H399.47C399.534 46.376 399.63 46.696 399.758 47.016C399.886 47.336 400.014 47.656 400.142 47.976H399.662C400.046 48.68 400.558 49.32 401.198 49.896H401.39C401.518 49.96 401.646 50.056 401.774 50.184C401.902 50.248 402.03 50.312 402.158 50.376H403.022C403.214 50.44 403.406 50.536 403.598 50.664C403.79 50.728 403.982 50.792 404.174 50.856H403.022C403.79 51.112 404.686 51.24 405.71 51.24C406.734 51.24 407.63 51.112 408.398 50.856H410.03C410.222 50.792 410.414 50.728 410.606 50.664C410.798 50.536 410.99 50.44 411.182 50.376H409.646C409.774 50.312 409.902 50.248 410.03 50.184C410.158 50.056 410.286 49.96 410.414 49.896H409.358C409.934 49.448 410.446 48.808 410.894 47.976H411.758C412.078 47.272 412.334 46.632 412.526 46.056H411.566C411.63 45.928 411.662 45.768 411.662 45.576C411.662 45.384 411.694 45.224 411.758 45.096H412.238C412.302 44.84 412.334 44.584 412.334 44.328C412.334 44.008 412.334 43.72 412.334 43.464V43.176H412.526C412.526 42.856 412.526 42.536 412.526 42.216C412.526 41.896 412.558 41.576 412.622 41.256H412.526V40.776H415.31V39.336H410.702V38.376H413.39V37.896H412.622V37.416H414.638V35.976H415.502V34.056Z" fill="#CB3131"/>
<path d="M507.2 25.896H506.144V27.336H508.352V27.816H507.488L507.2 29.736H508.256C508.192 29.864 508.16 30.024 508.16 30.216H506.816C506.752 30.536 506.688 30.856 506.624 31.176C506.56 31.496 506.464 31.816 506.336 32.136C506.336 32.392 506.272 32.712 506.144 33.096H505.184L504.608 34.536H504.512C504.448 34.856 504.32 35.176 504.128 35.496C503.936 35.816 503.776 36.136 503.648 36.456H503.84L503.552 36.936H504.416C504.224 37.256 504.032 37.576 503.84 37.896C503.648 38.216 503.424 38.536 503.168 38.856H503.84C503.584 39.176 503.296 39.496 502.976 39.816C502.72 40.136 502.432 40.456 502.112 40.776H501.92C501.536 41.096 501.152 41.416 500.768 41.736C500.448 42.056 500.064 42.376 499.616 42.696H499.04C498.528 43.016 497.984 43.336 497.408 43.656C496.896 43.976 496.352 44.296 495.776 44.616H496.064C495.936 44.68 495.776 44.744 495.584 44.808C495.392 44.872 495.232 44.968 495.104 45.096H495.008C493.792 45.672 492.448 46.152 490.976 46.536C490.272 46.728 489.536 46.92 488.768 47.112C488 47.24 487.232 47.368 486.464 47.496H486.368C483.808 47.88 481.088 48.072 478.208 48.072H471.488V48.936H472.16V50.856H473.312V51.336H471.008V52.296H471.872V53.736H469.472V54.216H472.448V56.136H471.584V58.536H471.968V59.976H470.816V61.896H470.336V62.856H473.504V64.296H470.816V66.216H472.64V66.408C472.64 66.728 472.608 66.984 472.544 67.176H471.968C471.968 67.24 471.904 67.4 471.776 67.656H472.064C472 67.784 471.872 67.944 471.68 68.136H471.776C471.52 68.392 471.328 68.552 471.2 68.616H471.296C470.976 68.872 470.528 69 469.952 69H450.176C449.6 69 449.152 68.872 448.832 68.616H448.64C448.512 68.552 448.32 68.392 448.064 68.136C448 68.008 447.936 67.912 447.872 67.848C447.808 67.784 447.776 67.72 447.776 67.656H447.488C447.36 67.4 447.296 67.24 447.296 67.176H447.776C447.712 66.984 447.68 66.728 447.68 66.408V66.216H445.856V64.296H448.544V62.856H445.376V61.896H445.856V59.976H447.008V58.536H446.624V56.136H447.488V54.216H444.512V53.736H446.912V52.296H446.048V51.336H448.352V50.856H447.2V48.936H446.528V47.496H446.624V44.616H446.432V42.696H447.008V40.776H447.296V38.856H446.624V36.936H445.76V36.456H445.568V34.536H445.664V33.096H446.624V30.216H446.336V29.736H446.048V27.816H447.104V27.336H446.72V25.896H447.104V24.936H447.008V23.976H444.32V22.056H433.664V20.616H438.56V18.696H447.296V17.736H443.648V15.816H441.44V14.376H442.88V13.896H440.864V11.976H448.256V11.496H447.296V10.056H445.088V8.616H442.016V6.696H448.928V5.256H445.568V4.776H444.896V4.296H446.624C446.624 4.04 446.688 3.72 446.816 3.336H445.76C445.824 3.144 445.92 2.984 446.048 2.856C446.176 2.664 446.304 2.504 446.432 2.376H452.288C452.8 1.992 453.344 1.8 453.92 1.8H483.008C485.824 1.8 488.416 1.992 490.784 2.376H485.024C485.792 2.504 486.528 2.664 487.232 2.856C488 2.984 488.704 3.144 489.344 3.336H490.496C491.008 3.464 491.488 3.624 491.936 3.816C492.448 3.944 492.928 4.104 493.376 4.296H491.648C491.84 4.36 492.032 4.424 492.224 4.488C492.416 4.552 492.608 4.648 492.8 4.776H493.376L494.432 5.256H497.888L500.384 6.696H493.376C493.888 6.952 494.336 7.272 494.72 7.65599C495.104 7.976 495.488 8.296 495.872 8.616H498.944L500.384 10.056H502.592C502.784 10.312 502.976 10.568 503.168 10.824C503.424 11.016 503.616 11.24 503.744 11.496H504.704C504.896 11.688 505.024 11.848 505.088 11.976H497.696C497.888 12.232 498.08 12.552 498.272 12.936C498.464 13.256 498.656 13.576 498.848 13.896H500.864L501.056 14.376H499.712L500.288 15.816H502.592L503.168 17.736H506.816L507.104 18.696H498.368C498.496 18.952 498.56 19.272 498.56 19.656C498.624 19.976 498.688 20.296 498.752 20.616H511.04C511.104 20.872 511.136 21.128 511.136 21.384C511.136 21.576 511.168 21.8 511.232 22.056H510.752C510.816 22.376 510.848 22.696 510.848 23.016C510.912 23.336 510.944 23.656 510.944 23.976H507.2V25.896ZM483.104 27.336H480.896L481.184 25.896H482.24V24.936C482.24 24.808 482.24 24.648 482.24 24.456C482.24 24.264 482.208 24.104 482.144 23.976H485.888C485.824 23.656 485.76 23.336 485.696 23.016C485.632 22.632 485.536 22.312 485.408 22.056H485.792C485.664 21.544 485.344 21.064 484.832 20.616H472.544C471.776 19.976 470.848 19.656 469.76 19.656H463.04V20.616H458.144V22.056H468.8V23.976H471.488V24.936H471.584V25.896H471.2V27.336H471.584V27.816H470.528V29.736H470.816V30.216H471.104V30.312H477.824C478.208 30.312 478.496 30.28 478.688 30.216H480.032C480.288 30.152 480.512 30.088 480.704 30.024C480.896 29.896 481.088 29.8 481.28 29.736H480.32C481.088 29.288 481.664 28.648 482.048 27.816H482.912C483.04 27.56 483.104 27.4 483.104 27.336Z" fill="#CB3131"/>
<path d="M550.983 18.216H535.335V20.136H541.575V22.056H549.831V23.496H540.519V23.976H541.671V25.896H539.271V26.376H539.079V26.856H536.679V28.776H541.191V29.256H541.383V29.736H540.327V31.176H539.655V31.656H542.823V33.576H535.143V35.496H537.927V36.936H539.463V38.856H539.655V40.776H538.887V43.176H539.751V44.136H539.175V45.576H539.079V46.056H538.311V47.976H539.175V48.936H539.079V54.696H539.175V56.616H540.807V58.536H539.463V59.496H539.079V60.456H540.231V62.376H538.599V62.856H540.999V63.816H541.863V64.296H541.095V65.736H540.711V66.408C540.711 66.536 540.679 66.664 540.615 66.792C540.615 66.92 540.583 67.048 540.519 67.176H538.119C538.055 67.496 537.863 67.816 537.543 68.136H540.231C539.975 68.392 539.783 68.552 539.655 68.616H534.183C533.863 68.872 533.415 69 532.839 69H513.255C512.679 69 512.231 68.872 511.911 68.616H517.383C517.127 68.552 516.935 68.392 516.807 68.136H514.119C513.799 67.816 513.607 67.496 513.543 67.176H516.039C515.975 66.984 515.943 66.728 515.943 66.408V65.736H516.327V64.296H517.095V63.816H516.231V62.856H513.831V62.376H515.463V60.456H514.311V59.496H514.695V58.536H516.039V56.616H514.407V54.696H514.311V48.936H514.407V47.976H513.543V46.056H514.311V45.576H514.407V44.136H514.983V43.176H514.119V40.776H514.887V38.856H514.695V36.936H513.159V35.496H510.375V33.576H518.055V31.656H514.887V31.176H515.559V29.736H516.615V29.256H516.423V28.776H511.911V26.856H514.311V26.376H514.503V25.896H516.903V23.976H515.751V23.496H525.063V22.056H516.807V20.136H510.567V18.216H526.215V17.736H516.423V16.296H516.327V14.856H514.599V14.376H520.455V13.416H516.039V11.496H516.423V10.056H513.735V8.136H514.215V7.17599H513.927V6.216H514.695V5.736H513.831V4.392C513.831 4.072 513.895 3.72 514.023 3.336H514.503C514.951 2.312 515.751 1.8 516.903 1.8H536.487C537.639 1.8 538.439 2.312 538.887 3.336H538.407C538.535 3.72 538.599 4.072 538.599 4.392V5.736H539.463V6.216H538.695V7.17599H538.983V8.136H538.503V10.056H541.191V11.496H540.807V13.416H545.223V14.376H539.367V14.856H541.095V16.296H541.191V17.736H550.983V18.216Z" fill="#CB3131"/>
<path d="M618.007 63.816L618.679 65.736H617.047L617.239 66.216C617.239 66.28 617.239 66.376 617.239 66.504C617.303 66.568 617.335 66.632 617.335 66.696H616.759V66.888C616.759 67.656 616.471 68.232 615.895 68.616H615.991C615.671 68.872 615.255 69 614.743 69H596.983C596.535 69 596.151 68.968 595.831 68.904C595.575 68.776 595.287 68.68 594.967 68.616C594.455 68.36 594.071 68.072 593.815 67.752C593.559 67.368 593.367 67.016 593.239 66.696H593.719V66.6L593.527 66.216L593.335 65.736H594.967L594.295 63.816H592.471L592.183 62.856H596.119L595.447 60.936H594.295L594.007 60.264H573.367L573.175 60.936H572.023L571.351 62.856H570.295L569.911 63.816H569.335L568.663 65.736H568.759L568.567 66.216L568.471 66.6L568.375 66.696H567.895C567.767 67.016 567.575 67.368 567.319 67.752C567.063 68.072 566.679 68.36 566.167 68.616H569.047C568.791 68.68 568.503 68.776 568.183 68.904C567.863 68.968 567.479 69 567.031 69H549.271C548.759 69 548.375 68.872 548.119 68.616H545.239C544.599 68.168 544.279 67.592 544.279 66.888V66.696H544.855C544.855 66.504 544.887 66.344 544.951 66.216L545.047 65.736H544.951L545.623 63.816H546.199L546.583 62.856H547.639L548.311 60.936H549.367L550.039 59.016H546.295L546.679 58.056H546.391L546.871 56.616H547.831L548.023 56.136H545.911L546.583 54.216H549.847L550.135 53.256H547.159L547.351 52.776H547.831L548.503 50.856H548.215L548.695 49.416H549.079L549.751 47.496H550.999L551.479 46.056L551.671 45.576H556.471L556.663 45.096H556.375L556.855 43.656H551.479L552.151 41.736H553.879L554.071 41.256H553.015L553.207 40.776H556.279L556.951 38.856H553.207L553.591 37.896H555.031L555.703 35.976H554.839L555.319 34.536H556.375L557.047 32.616H556.759L556.951 32.136H554.743L555.127 31.176H557.239L557.719 29.736H556.759L556.855 29.256H558.583L559.255 27.336H557.143L557.623 25.896H556.567L556.855 24.936H550.231L550.519 23.976H549.271L549.943 22.056H548.695L549.271 20.616H553.015L553.687 18.696H563.287L563.767 17.256H559.159L559.543 16.296H563.095L563.767 14.376H560.599L561.079 12.936H563.095L563.767 11.016H563.479L564.151 9.096H561.463L561.559 8.616H570.775L571.447 6.696H571.159L571.351 6.216H567.991L568.375 4.96799L568.663 4.296H569.623L570.199 3.336H569.911C570.231 2.888 570.679 2.536 571.255 2.27999C571.831 1.96 572.535 1.8 573.367 1.8H594.199C595.031 1.8 595.735 1.96 596.311 2.27999C596.887 2.536 597.335 2.888 597.655 3.336H598.039L598.615 4.296H597.655C597.783 4.552 597.847 4.776 597.847 4.96799L598.327 6.216H601.687L601.783 6.696H602.071L602.743 8.616H593.623L593.815 9.096H596.503L597.175 11.016H597.463L598.135 12.936H596.119L596.599 14.376H599.767L600.439 16.296H596.887L597.271 17.256H601.879L602.359 18.696H592.759L593.431 20.616H589.687L590.167 22.056H591.319L591.991 23.976H588.247L588.631 24.936H603.895L604.183 25.896H603.415L603.895 27.336H601.975L602.647 29.256H600.343L600.439 29.736H603.895L604.375 31.176H604.471L604.855 32.136H601.687L601.879 32.616H604.951L605.623 34.536H606.679L607.159 35.976H606.871L607.543 37.896H609.079L609.463 38.856H606.679L607.351 40.776H609.271L609.367 41.256H608.887L609.079 41.736H607.351L607.927 43.656H613.399L613.879 45.096H614.167L614.359 45.576H609.463L609.655 46.056H609.751L610.231 47.496H608.983L609.655 49.416H609.175L609.751 50.856H610.039L610.711 52.776H610.231L610.423 53.256H613.399L613.783 54.216H610.423L611.095 56.136H613.207L613.399 56.616H612.439L613.015 58.056H613.207L613.591 59.016H617.335L618.007 60.936H619.159L619.831 62.856H615.895L616.183 63.816H618.007ZM577.879 25.896H579.031L578.551 27.336H582.487L582.007 25.896H582.775L582.487 24.936H578.167L577.879 25.896ZM581.047 29.256L580.567 27.624L580.087 29.256H581.047ZM575.287 40.776L575.095 41.256H576.151L576.055 41.544H586.903L586.807 41.256H587.287L587.191 40.776H585.271L584.695 38.856H587.479L587.191 37.896H585.559L584.983 35.976H585.271L584.887 34.536H583.831L583.255 32.616H580.183L579.991 32.136H583.159L582.871 31.176H582.775L582.295 29.736H579.223L578.839 31.176H576.727L576.439 32.136H578.551L578.455 32.616H578.743L578.167 34.536H577.111L576.631 35.976H577.495L576.919 37.896H575.479L575.191 38.856H578.935L578.359 40.776H575.287Z" fill="#CB3131"/>
<path d="M89.056 46.536V47.016H96.544V47.976H96.16V49.416H76.288V49.896H79.744V51.336H90.304V52.296H84.832V54.216H84.544V54.696H78.208V56.136H87.616V56.616H88V58.056H88.96V59.976H70.432V61.416H90.016V62.376H83.488V63.816H82.624V64.776H84.832V65.736H83.392V66.696H86.752L86.464 67.656H90.976C90.848 67.848 90.688 68.04 90.496 68.232C90.368 68.36 90.208 68.488 90.016 68.616H92.224C91.904 68.872 91.456 69 90.88 69H72.064C71.488 69 71.04 68.872 70.72 68.616H68.512C68.064 68.424 67.744 68.104 67.552 67.656H63.04L62.752 66.696H59.392V65.736H60.832V64.776H58.624V63.816H59.488V62.376H66.016V61.416H48.64V62.376H40.672V63.816H46.144V64.776H44.8V65.736H49.792V66.696H44.416L44.128 67.656H46.24C45.984 68.104 45.696 68.424 45.376 68.616H43.072C42.752 68.872 42.304 69 41.728 69H22.912C22.272 69 21.792 68.872 21.472 68.616H23.776C23.456 68.424 23.168 68.104 22.912 67.656H20.704C20.512 67.336 20.416 67.016 20.416 66.696H25.792V65.736H20.8V64.776H22.144V63.816H16.672V62.376H24.64V61.416H29.248V59.976H14.464V58.056H19.936V56.616H23.776V56.136H21.088V54.696H16.576V54.216H17.536V52.296H20.608V51.336H22.048V49.896H15.136V49.416H32.896V47.976H11.2V47.016H31.648V46.536H21.664V45.096H27.424V44.616H28.576V44.136H28.096V42.216H18.592V40.776H21.76V40.296H20.896V38.856H21.28V38.376H21.376V37.416H21.472V36.936H20.224V36.456H16.48V35.016H17.728V33.576H15.808V32.136H20.608V30.216H19.552V29.256H12.544V28.776H23.776V27.816H26.464V27.336H0.544006V26.856H15.808V26.376H21.28V24.936H11.488V23.016H8.80001V21.576H20.32V19.656H21.28V18.216H27.424V17.736H22.144V15.816H26.464V14.856H21.28V14.376H19.456V13.416H16.672V12.456H13.312V10.536H19.36V9.096H23.008V7.65599H21.28V6.696H18.88V6.216H20.224V5.256H19.936V4.392C19.936 3.944 20.032 3.592 20.224 3.336H26.368C26.432 3.144 26.528 2.984 26.656 2.856C26.784 2.664 26.912 2.504 27.04 2.376H41.824C42.208 1.992 42.752 1.8 43.456 1.8H80.32C80.96 1.8 81.504 1.992 81.952 2.376H96.736C96.864 2.504 96.992 2.664 97.12 2.856C97.312 2.984 97.44 3.144 97.504 3.336H85.12C85.248 3.72 85.312 4.072 85.312 4.392V5.256H85.792V6.216H87.136V6.696H84.544V7.65599H83.392V9.096H87.136V10.536H78.112V12.456H88.48V13.416H80.992V14.376H84.064V14.856H82.528V15.816H89.728V17.736H79.168V18.216H87.328V19.656H85.888V21.576H78.208V23.016H75.04V24.936H84.832V26.376H79.36V26.856H64.096V27.336H90.016V27.816H87.328V28.776H76.096V29.256H83.104V30.216H84.16V32.136H79.36V33.576H81.28V35.016H80.032V36.456H83.776V36.936H85.024V37.416H84.928V38.376H84.832V38.856H84.448V40.296H85.312V40.776H82.144V42.216H91.648V44.136H92.128V44.616H90.976V45.096H85.216V46.536H89.056ZM32.8 21.576V23.016H35.488V24.552H51.04V23.016H54.208V21.576H61.888V19.656H63.328V18.216H55.168V17.736H65.728V15.816H58.528V14.856H60.064V14.376H56.992V13.416H64.48V12.456H54.112V10.536H63.136V9.096H59.392V7.65599H60.544V6.696H63.136V6.216H61.792V5.256H61.312V4.392C61.312 4.072 61.376 3.72 61.504 3.336H73.888C74.016 3.144 74.144 2.984 74.272 2.856C74.4 2.664 74.528 2.504 74.656 2.376H49.12C49.44 2.632 49.696 2.952 49.888 3.336H43.744C43.872 3.528 43.936 3.88 43.936 4.392V5.256H44.224V6.216H42.88V6.696H45.28V7.65599H47.008V9.096H43.36V10.536H37.312V12.456H40.672V13.416H43.456V14.376H45.28V14.856H50.464V15.816H46.144V17.736H51.424V18.216H45.28V19.656H44.32V21.576H32.8ZM72.544 47.976V47.016H65.056V46.536H61.216V45.672H45.664V46.536H55.648V47.016H35.2V47.976H56.896V49.416H72.16V47.976H72.544ZM66.304 51.336H55.744V49.896H52.288V49.416H39.136V49.896H46.048V51.336H44.608V52.296H41.536V54.216H40.576V54.696H45.088V56.136H47.776V56.616H43.936V58.056H38.464V59.976H64.96V58.056H64V56.616H63.616V56.136H54.208V54.696H60.544V54.216H60.832V52.296H66.304V51.336Z" fill="#202020"/>
<path d="M163.788 63.816L164.46 65.736H162.828L163.02 66.216C163.02 66.28 163.02 66.376 163.02 66.504C163.084 66.568 163.116 66.632 163.116 66.696H162.54V66.888C162.54 67.656 162.252 68.232 161.676 68.616H161.772C161.452 68.872 161.036 69 160.524 69H142.764C142.316 69 141.932 68.968 141.612 68.904C141.356 68.776 141.068 68.68 140.748 68.616C140.236 68.36 139.852 68.072 139.596 67.752C139.34 67.368 139.148 67.016 139.02 66.696H139.5V66.6L139.308 66.216L139.116 65.736H140.748L140.076 63.816H138.252L137.964 62.856H141.9L141.228 60.936H140.076L139.788 60.264H119.148L118.956 60.936H117.804L117.132 62.856H116.076L115.692 63.816H115.116L114.444 65.736H114.54L114.348 66.216L114.252 66.6L114.156 66.696H113.676C113.548 67.016 113.356 67.368 113.1 67.752C112.844 68.072 112.46 68.36 111.948 68.616H114.828C114.572 68.68 114.284 68.776 113.964 68.904C113.644 68.968 113.26 69 112.812 69H95.0523C94.5403 69 94.1563 68.872 93.9003 68.616H91.0203C90.3803 68.168 90.0603 67.592 90.0603 66.888V66.696H90.6363C90.6363 66.504 90.6683 66.344 90.7323 66.216L90.8283 65.736H90.7323L91.4043 63.816H91.9803L92.3643 62.856H93.4203L94.0923 60.936H95.1483L95.8203 59.016H92.0763L92.4603 58.056H92.1723L92.6523 56.616H93.6123L93.8043 56.136H91.6923L92.3643 54.216H95.6283L95.9163 53.256H92.9403L93.1323 52.776H93.6123L94.2843 50.856H93.9963L94.4763 49.416H94.8603L95.5323 47.496H96.7803L97.2603 46.056L97.4523 45.576H102.252L102.444 45.096H102.156L102.636 43.656H97.2603L97.9323 41.736H99.6603L99.8523 41.256H98.7963L98.9883 40.776H102.06L102.732 38.856H98.9883L99.3723 37.896H100.812L101.484 35.976H100.62L101.1 34.536H102.156L102.828 32.616H102.54L102.732 32.136H100.524L100.908 31.176H103.02L103.5 29.736H102.54L102.636 29.256H104.364L105.036 27.336H102.924L103.404 25.896H102.348L102.636 24.936H96.0123L96.3003 23.976H95.0523L95.7243 22.056H94.4763L95.0523 20.616H98.7963L99.4683 18.696H109.068L109.548 17.256H104.94L105.324 16.296H108.876L109.548 14.376H106.38L106.86 12.936H108.876L109.548 11.016H109.26L109.932 9.096H107.244L107.34 8.616H116.556L117.228 6.696H116.94L117.132 6.216H113.772L114.156 4.96799L114.444 4.296H115.404L115.98 3.336H115.692C116.012 2.888 116.46 2.536 117.036 2.27999C117.612 1.96 118.316 1.8 119.148 1.8H139.98C140.812 1.8 141.516 1.96 142.092 2.27999C142.668 2.536 143.116 2.888 143.436 3.336H143.82L144.396 4.296H143.436C143.564 4.552 143.628 4.776 143.628 4.96799L144.108 6.216H147.468L147.564 6.696H147.852L148.524 8.616H139.404L139.596 9.096H142.284L142.956 11.016H143.244L143.916 12.936H141.9L142.38 14.376H145.548L146.22 16.296H142.668L143.052 17.256H147.66L148.14 18.696H138.54L139.212 20.616H135.468L135.948 22.056H137.1L137.772 23.976H134.028L134.412 24.936H149.676L149.964 25.896H149.196L149.676 27.336H147.756L148.428 29.256H146.124L146.22 29.736H149.676L150.156 31.176H150.252L150.636 32.136H147.468L147.66 32.616H150.732L151.404 34.536H152.46L152.94 35.976H152.652L153.324 37.896H154.86L155.244 38.856H152.46L153.132 40.776H155.052L155.148 41.256H154.668L154.86 41.736H153.132L153.708 43.656H159.18L159.66 45.096H159.948L160.14 45.576H155.244L155.436 46.056H155.532L156.012 47.496H154.764L155.436 49.416H154.956L155.532 50.856H155.82L156.492 52.776H156.012L156.204 53.256H159.18L159.564 54.216H156.204L156.876 56.136H158.988L159.18 56.616H158.22L158.796 58.056H158.988L159.372 59.016H163.116L163.788 60.936H164.94L165.612 62.856H161.676L161.964 63.816H163.788ZM123.66 25.896H124.812L124.332 27.336H128.268L127.788 25.896H128.556L128.268 24.936H123.948L123.66 25.896ZM126.828 29.256L126.348 27.624L125.868 29.256H126.828ZM121.068 40.776L120.876 41.256H121.932L121.836 41.544H132.684L132.588 41.256H133.068L132.972 40.776H131.052L130.476 38.856H133.26L132.972 37.896H131.34L130.764 35.976H131.052L130.668 34.536H129.612L129.036 32.616H125.964L125.772 32.136H128.94L128.652 31.176H128.556L128.076 29.736H125.004L124.62 31.176H122.508L122.22 32.136H124.332L124.236 32.616H124.524L123.948 34.536H122.892L122.412 35.976H123.276L122.7 37.896H121.26L120.972 38.856H124.716L124.14 40.776H121.068Z" fill="#202020"/>
<path d="M242.151 23.016V23.496H239.847C239.911 23.816 239.943 24.136 239.943 24.456C239.943 24.776 239.943 25.096 239.943 25.416H223.143C223.143 26.248 222.727 26.888 221.895 27.336C221.511 27.464 221.223 27.528 221.031 27.528H201.447C201.191 27.528 200.935 27.528 200.679 27.528C200.423 27.464 200.167 27.4 199.911 27.336H184.263V27.816H192.711C192.647 28.136 192.615 28.456 192.615 28.776C192.615 29.096 192.615 29.416 192.615 29.736H189.255C189.191 29.864 189.159 30.024 189.159 30.216C189.159 30.408 189.159 30.568 189.159 30.696H189.447V31.656H188.007V33.576H192.615V34.056H177.063V35.016H181.959V36.936H191.847V37.416H187.815V37.896H185.223V39.816H192.615C192.679 40.072 192.711 40.328 192.711 40.584C192.711 40.776 192.711 41 192.711 41.256H195.399V41.736H183.015V42.696H180.231V43.176H192.711V43.272H211.911C213.127 43.272 213.831 43.88 214.023 45.096H228.231V46.536H227.559L227.367 48.456H226.311L226.215 49.416H228.711C228.711 49.608 228.679 49.768 228.615 49.896H228.039C227.975 50.024 227.943 50.184 227.943 50.376H231.111L230.823 51.816H227.847C227.847 51.88 227.815 51.944 227.751 52.008C227.751 52.072 227.751 52.168 227.751 52.296H226.983C226.919 52.552 226.823 52.808 226.695 53.064C226.631 53.256 226.567 53.48 226.503 53.736H227.655C227.655 53.8 227.591 53.96 227.463 54.216H225.543C225.415 54.536 225.255 54.856 225.063 55.176C224.935 55.496 224.775 55.816 224.583 56.136H226.503L225.639 57.576H226.503L225.543 59.016H224.967C224.711 59.336 224.423 59.656 224.103 59.976C223.847 60.296 223.559 60.616 223.239 60.936H222.471C222.407 61 222.343 61.064 222.279 61.128C222.215 61.192 222.119 61.288 221.991 61.416H217.863L217.383 61.896H236.679C236.295 62.216 235.911 62.536 235.527 62.856C235.143 63.176 234.727 63.496 234.279 63.816H233.223C232.583 64.264 231.815 64.744 230.919 65.256H210.663C210.023 65.64 209.351 65.992 208.647 66.312C207.943 66.568 207.239 66.856 206.535 67.176H222.375C222.183 67.24 221.959 67.304 221.703 67.368C221.511 67.432 221.287 67.528 221.031 67.656H217.191C216.935 67.72 216.679 67.784 216.423 67.848C216.167 67.912 215.911 68.008 215.655 68.136H208.743C206.439 68.776 204.071 69.256 201.639 69.576H203.175C202.151 69.704 201.095 69.8 200.007 69.864C198.919 69.928 197.831 69.96 196.743 69.96C195.527 69.96 194.343 69.928 193.191 69.864C192.103 69.8 191.015 69.704 189.927 69.576H188.391C185.831 69.256 183.463 68.776 181.287 68.136H188.199C187.943 68.008 187.687 67.912 187.431 67.848C187.239 67.784 187.015 67.72 186.759 67.656H190.695L189.351 67.176H173.511C172.871 66.856 172.199 66.568 171.495 66.312C170.855 65.992 170.215 65.64 169.575 65.256H189.927C189.543 65 189.159 64.776 188.775 64.584C188.391 64.328 188.039 64.072 187.719 63.816H188.775C188.007 63.24 187.271 62.6 186.567 61.896H167.175C167.111 61.768 167.047 61.672 166.983 61.608C166.919 61.544 166.823 61.48 166.695 61.416H170.919C170.855 61.288 170.759 61.192 170.631 61.128C170.567 61.064 170.503 61 170.439 60.936H171.207C170.631 60.296 170.087 59.656 169.575 59.016H170.151L169.287 57.576H168.423L167.559 56.136H165.639L164.775 54.216H166.791L166.599 53.736H165.351C165.287 53.48 165.223 53.256 165.159 53.064C165.095 52.808 164.999 52.552 164.871 52.296H165.639L165.447 51.816H168.423C168.359 51.56 168.295 51.336 168.231 51.144C168.167 50.888 168.103 50.632 168.039 50.376H166.503C166.439 50.248 166.407 50.088 166.407 49.896H164.775C164.711 49.768 164.679 49.608 164.679 49.416H164.775C164.775 49.16 164.711 48.84 164.583 48.456H159.111L158.823 46.536H166.215C166.151 46.28 166.119 46.056 166.119 45.864C166.119 45.608 166.087 45.352 166.023 45.096H167.847C167.847 44.904 167.847 44.712 167.847 44.52C167.847 44.328 167.815 44.136 167.751 43.944V43.176H155.271V42.696H158.055V41.736H170.439V41.256H167.751C167.751 41 167.719 40.776 167.655 40.584C167.655 40.328 167.655 40.072 167.655 39.816H160.263V37.896H162.855V37.416H166.887V36.936H156.999V35.016H152.103V34.056H167.655V33.576H163.047V31.656H164.487V30.696H164.199V29.736H167.655V27.816H159.303V27.336H177.735V26.856C177.799 26.6 177.831 26.376 177.831 26.184C177.831 25.928 177.831 25.672 177.831 25.416H172.743C172.743 25.096 172.743 24.776 172.743 24.456C172.807 24.136 172.871 23.816 172.935 23.496H176.007C176.071 23.368 176.103 23.208 176.103 23.016H156.231C156.295 22.888 156.327 22.728 156.327 22.536C156.327 22.344 156.359 22.184 156.423 22.056H173.895L174.375 20.136H170.439L170.727 19.176H164.295L164.487 18.696H166.599C166.663 18.568 166.727 18.408 166.791 18.216C166.855 18.024 166.919 17.864 166.983 17.736H165.927L166.311 16.776H166.791C166.919 16.52 167.047 16.296 167.175 16.104C167.303 15.848 167.399 15.592 167.463 15.336H167.559L168.423 13.896H168.135C168.263 13.64 168.391 13.416 168.519 13.224C168.711 12.968 168.903 12.712 169.095 12.456H168.327C168.583 12.136 168.839 11.816 169.095 11.496C169.351 11.112 169.607 10.792 169.863 10.536H168.999C169.063 10.408 169.127 10.312 169.191 10.248C169.255 10.184 169.319 10.12 169.383 10.056H168.423L168.903 9.576H168.711C168.839 9.448 168.935 9.352 168.999 9.288C169.063 9.224 169.127 9.16 169.191 9.096H167.463C167.591 8.968 167.751 8.808 167.943 8.616C168.135 8.424 168.327 8.264 168.519 8.136H170.823C171.143 7.88 171.463 7.656 171.783 7.464C172.103 7.208 172.423 6.952 172.743 6.696H171.687L172.455 6.216H170.823C170.951 6.088 171.079 5.992 171.207 5.928C171.335 5.864 171.463 5.8 171.591 5.736H176.583C177.031 5.48 177.479 5.256 177.927 5.064C178.375 4.808 178.823 4.552 179.271 4.296H178.983C179.367 4.104 179.751 3.944 180.135 3.816C180.519 3.624 180.903 3.464 181.287 3.336H183.111C183.303 3.208 183.495 3.112 183.687 3.048C183.943 2.984 184.199 2.92 184.455 2.856H181.575C183.495 2.152 185.543 1.672 187.719 1.41599H190.311C192.807 1.032 195.431 0.839996 198.183 0.839996C200.871 0.839996 203.463 1.032 205.959 1.41599H203.463C205.575 1.672 207.687 2.152 209.799 2.856H212.679C212.935 2.92 213.159 2.984 213.351 3.048C213.607 3.112 213.863 3.208 214.119 3.336H212.295C213.255 3.656 214.055 3.976 214.695 4.296H214.983C215.495 4.552 215.975 4.808 216.423 5.064C216.871 5.256 217.319 5.48 217.767 5.736H212.871C212.999 5.8 213.127 5.864 213.255 5.928C213.383 5.992 213.511 6.088 213.639 6.216H215.271C215.399 6.27999 215.527 6.344 215.655 6.408C215.783 6.472 215.879 6.568 215.943 6.696H216.999L218.919 8.136H216.519L217.671 9.096H219.399L219.975 9.576H220.071L220.551 10.056H221.511L221.991 10.536H222.855C223.111 10.792 223.367 11.112 223.623 11.496C223.879 11.816 224.135 12.136 224.391 12.456H225.063C225.255 12.712 225.415 12.968 225.543 13.224C225.735 13.416 225.895 13.64 226.023 13.896H226.311C226.439 14.152 226.567 14.408 226.695 14.664C226.823 14.856 226.951 15.08 227.079 15.336H226.887C227.015 15.592 227.143 15.848 227.271 16.104C227.399 16.296 227.495 16.52 227.559 16.776H227.079L227.367 17.736H228.423L228.711 18.696H226.599C226.599 18.76 226.599 18.824 226.599 18.888C226.663 18.952 226.695 19.048 226.695 19.176H233.127C233.127 19.432 233.191 19.752 233.319 20.136H224.583L224.871 22.056H230.439L230.535 23.016H242.151ZM198.087 20.136H204.903C203.879 19.752 202.727 19.56 201.447 19.56C200.167 19.56 199.047 19.752 198.087 20.136ZM214.695 24.744C214.631 24.488 214.567 24.264 214.503 24.072C214.439 23.88 214.343 23.688 214.215 23.496H216.519L216.231 23.016H204.711C204.647 22.824 204.551 22.664 204.423 22.536C204.295 22.344 204.167 22.184 204.039 22.056H182.247C182.183 22.184 182.087 22.344 181.959 22.536C181.895 22.664 181.799 22.824 181.671 23.016H201.543L201.351 23.496H198.279C198.151 23.752 198.055 24.072 197.991 24.456C197.927 24.776 197.863 25.096 197.799 25.416H214.983L214.695 24.744ZM203.367 45.096H191.079L191.367 46.536H183.975C184.103 46.92 184.231 47.272 184.359 47.592C184.487 47.848 184.647 48.136 184.839 48.456H190.311C190.439 48.648 190.567 48.84 190.695 49.032C190.823 49.16 190.951 49.288 191.079 49.416H190.887L191.367 49.896H192.999C193.127 49.96 193.255 50.056 193.383 50.184C193.511 50.248 193.639 50.312 193.767 50.376H195.303C196.391 50.952 197.703 51.24 199.239 51.24C200.775 51.24 202.055 50.952 203.079 50.376H199.911L200.679 49.896H201.255L201.831 49.416H199.335C199.463 49.288 199.591 49.16 199.719 49.032C199.911 48.84 200.039 48.648 200.103 48.456H201.159C201.543 47.88 201.863 47.24 202.119 46.536H202.791L202.983 46.056C203.111 45.672 203.239 45.352 203.367 45.096Z" fill="#202020"/>
<path d="M302.862 63.816L304.014 65.736H299.79L299.885 65.832C299.949 65.896 299.982 66.024 299.982 66.216C300.046 66.408 300.11 66.568 300.174 66.696H299.885V66.888C299.885 67.144 299.854 67.368 299.79 67.56C299.726 67.752 299.63 67.944 299.502 68.136H300.75C300.622 68.328 300.462 68.488 300.27 68.616H294.702C294.382 68.872 293.966 69 293.454 69H271.566C271.182 69 270.83 68.968 270.51 68.904C270.19 68.776 269.902 68.68 269.646 68.616H275.214C275.021 68.552 274.734 68.392 274.35 68.136H273.102C272.782 67.88 272.525 67.624 272.333 67.368C272.205 67.112 272.078 66.92 271.95 66.792L271.854 66.696H272.142L271.661 65.736H275.79L274.734 63.816H283.374L283.086 63.336H275.598L275.501 63.144V63.336H260.526V63.816H270.51V65.736H264.366V66.696H255.054C255.054 66.952 254.99 67.208 254.862 67.464C254.734 67.72 254.606 67.944 254.478 68.136H253.614C253.358 68.392 253.166 68.552 253.038 68.616H246.798C246.478 68.872 246.03 69 245.454 69H227.118C226.542 69 226.094 68.872 225.774 68.616H231.918C231.79 68.552 231.598 68.392 231.342 68.136H232.206C232.078 67.944 231.95 67.72 231.822 67.464C231.694 67.208 231.63 66.952 231.63 66.696H240.846V65.736H246.99V63.816H237.006V63.336H251.982V61.896H233.646V60.456H235.374V58.536H236.91V57.576H236.622V55.656H236.43V53.736H235.662V52.296H236.238V51.336H237.294V49.416H240.75V47.976H228.558V47.016H227.694V46.536H238.638V45.576H239.598V45.096H227.118V43.656H228.75V42.696H229.326V40.776H238.734V39.816H241.326V38.376H229.23V36.456H232.494V35.016H236.718V34.536H243.15V33.576H246.51V32.136H247.182V31.656H245.166V30.216H238.734V29.736H234.222V27.816H252.174V26.856H230.094V25.896H246.702V24.456H230.67V23.496H236.91V22.536H242.862V20.616H240.942V19.176H241.518V17.736H238.734V17.256H236.718V15.816H236.142V15.336H237.39V14.376H238.638V12.456H228.078V11.976H228.654V11.496H232.59V11.016H231.246V10.536H238.638V10.056H236.814V9.576H236.718V7.65599H237.198V6.696H243.822V5.736H244.686V4.776H245.07V4.296H234.798C234.862 3.592 235.182 2.952 235.758 2.376H236.814C237.198 1.992 237.742 1.8 238.446 1.8H256.781C257.421 1.8 257.966 1.992 258.414 2.376H257.358C257.998 2.888 258.318 3.528 258.318 4.296H268.59V4.776H268.206V5.736H267.342V6.696H260.717V7.65599H260.238V9.576H260.333V10.056H262.158V10.536H254.766V11.016H256.11V11.496H252.174V11.976H251.598V12.456H260.622L260.91 11.976H263.982L264.174 11.496H269.742L270.03 11.016H264.462L264.75 10.536H266.382L266.669 10.056H267.15L267.438 9.576H268.302L268.493 9.096H269.549L270.318 7.65599H269.837L270.414 6.696H275.885L276.366 5.736H271.95L272.43 4.776H277.23L277.422 4.296H270.893L271.086 3.912C271.406 3.272 271.886 2.76 272.526 2.376H271.758C272.334 1.992 273.102 1.8 274.062 1.8H295.277C295.853 1.8 296.333 1.992 296.717 2.376H297.582C298.03 2.824 298.254 3.336 298.254 3.912C298.254 4.104 298.222 4.232 298.158 4.296H304.782C304.782 4.36 304.75 4.424 304.686 4.488C304.686 4.552 304.686 4.648 304.686 4.776H299.982L299.79 4.96799L299.406 5.736H303.822L303.246 6.696H297.773L297.198 7.65599H297.678L296.814 9.096H295.854L295.566 9.576H294.702L294.414 10.056H293.934L293.646 10.536H291.918L291.63 11.016H297.294L297.006 11.496H291.438L291.15 11.976H288.078L287.79 12.456H288.366L287.31 14.376H291.15L290.574 15.336H291.438L291.15 15.816H291.246L290.382 17.256H291.726L291.438 17.736H291.534L290.67 19.176H288.75L287.885 20.616H289.902L288.75 22.536H287.694L287.118 23.496H280.878L280.302 24.456H296.334L295.47 25.896H278.862L278.286 26.856H300.366L299.79 27.816H281.838L280.686 29.736H285.198L284.91 30.216H291.342L290.478 31.656H292.493L292.206 32.136H291.534L290.67 33.576H287.31L287.118 33.96L287.502 34.536H281.07L281.358 35.016H277.134L277.997 36.456H274.638L275.79 38.376H287.885L288.75 39.816H286.158L286.734 40.776H277.326L278.478 42.696H277.902L278.478 43.656H276.846L277.71 45.096H290.19L290.478 45.576H289.422L289.997 46.536H287.31L287.598 47.016H286.638L287.214 47.976H280.109L280.974 49.416H289.23L290.382 51.336H290.19L290.766 52.296H291.534L292.398 53.736H294.126L295.277 55.656H293.549L294.702 57.576H294.798L295.277 58.536H295.47L296.622 60.456H297.198L298.062 61.896H302.862L303.726 63.336H311.214L311.502 63.816H302.862ZM260.238 17.256H262.254V17.736H264.462L264.75 17.256H263.406L264.174 15.816H264.078L264.366 15.336H263.501L263.982 14.376H260.91V15.336H259.661V15.816H260.238V17.256ZM260.91 22.536H260.43V23.4L260.91 22.536ZM262.158 46.536H262.445L262.158 45.864V46.536ZM251.214 47.016H252.078V47.976H259.661L259.086 47.016H260.046L259.758 46.536H251.214V47.016ZM257.165 61.896H270.03L269.262 60.456H268.59L267.534 58.536H267.342L266.862 57.576H266.766L265.71 55.656H267.438L266.382 53.736H264.654L263.79 52.296H263.022L262.542 51.336H262.734L261.582 49.416H260.814V51.336H259.758V52.296H259.182V53.736H259.95V55.656H260.142V57.576H260.43V58.536H258.893V60.456H257.165V61.896Z" fill="#202020"/>
<path d="M368.703 10.536H350.846V12.456H357.663V13.896H365.055V15.336H364.863V16.776H367.647V18.696H357.182V19.176H355.167V19.848C355.167 20.296 355.071 20.712 354.879 21.096H361.695C361.247 21.992 360.511 22.44 359.487 22.44H343.551V22.536H344.51V24.456H344.703V26.376H344.223V28.296H342.975V29.736H347.775V30.696H343.743V32.136H341.631V34.056H345.279V35.016H344.607V36.936H343.935V38.856H342.783V40.776H341.727V42.216H345.279V43.656H343.839V45.576H344.415V46.056H345.087V47.016H349.887V48.456H346.622V50.376H348.062V52.296H344.031V54.216H345.663V55.176H346.335V56.616H347.871V58.536H347.294V59.976H344.799V61.416H344.51V62.376H344.415V63.816H345.471V65.256H344.607V66.408C344.607 66.728 344.574 66.984 344.51 67.176H343.551C343.359 67.816 343.007 68.296 342.495 68.616H342.687C342.367 68.872 341.918 69 341.342 69H322.143C321.631 69 321.151 68.872 320.703 68.616H320.51C320.062 68.296 319.71 67.816 319.454 67.176H320.319C320.255 66.984 320.223 66.728 320.223 66.408V65.256H321.087V63.816H320.031V62.376H320.126V61.416H320.415V59.976H322.911V58.536H323.487V56.616H321.951V55.176H321.279V54.216H319.647V52.296H323.678V50.376H322.238V48.456H325.503V47.016H320.703V46.056H320.031V45.576H319.454V43.656H320.895V42.216H317.342V40.776H318.398V38.856H319.551V36.936H320.223V35.016H320.895V34.056H317.247V32.136H319.359V30.696H323.391V29.736H318.591V28.296H319.839V26.376H320.319V24.456H320.126V22.536H319.167V22.44H303.23C302.27 22.44 301.503 21.992 300.927 21.096H294.111C294.047 20.904 293.983 20.712 293.919 20.52C293.791 20.328 293.727 20.104 293.727 19.848V19.176H295.742V18.696H306.207V16.776H303.423V15.336H303.615V13.896H296.223V12.456H289.406V10.536H307.263V9.096H297.279V7.17599H299.199V5.256H301.695V4.776H303.135V4.392C303.135 3.752 303.327 3.24 303.711 2.856H301.599C302.111 2.152 302.815 1.8 303.711 1.8H359.967C360.863 1.8 361.567 2.152 362.079 2.856H364.095C364.415 3.304 364.575 3.816 364.575 4.392V4.776H363.135V5.256H360.639V7.17599H358.719V9.096H368.703V10.536Z" fill="#202020"/>
<path d="M430.526 32.136H435.326V34.056H434.462V35.976H433.598V37.416H431.582V37.896H432.35V38.376H429.662V39.336H434.27V40.776H431.486V41.256H431.582C431.582 41.576 431.55 41.896 431.486 42.216C431.486 42.536 431.486 42.856 431.486 43.176H431.39C431.326 43.368 431.294 43.656 431.294 44.04V45.096H430.814C430.75 45.224 430.718 45.384 430.718 45.576C430.718 45.768 430.718 45.928 430.718 46.056H431.678L431.39 47.976H430.526C430.462 48.296 430.398 48.616 430.334 48.936C430.334 49.256 430.27 49.576 430.142 49.896H431.198C431.198 49.96 431.166 50.024 431.102 50.088C431.102 50.152 431.102 50.248 431.102 50.376H432.542C432.542 50.44 432.51 50.504 432.446 50.568C432.446 50.632 432.446 50.728 432.446 50.856H430.718C430.654 51.112 430.59 51.368 430.526 51.624C430.462 51.816 430.398 52.04 430.334 52.296H430.046L429.47 53.736H428.414C428.35 53.992 428.254 54.248 428.126 54.504C427.998 54.696 427.87 54.92 427.742 55.176H428.606C428.478 55.496 428.318 55.816 428.126 56.136H427.55C427.486 56.392 427.358 56.648 427.166 56.904C427.038 57.096 426.91 57.32 426.782 57.576H429.758L429.086 58.536H425.534L424.478 59.976H425.534L424.19 61.416H425.246C425.182 61.48 425.086 61.544 424.958 61.608C424.894 61.672 424.83 61.768 424.766 61.896H425.918C425.726 62.024 425.534 62.184 425.342 62.376C425.214 62.568 425.054 62.728 424.862 62.856H423.038C422.846 62.984 422.654 63.144 422.462 63.336C422.27 63.528 422.046 63.688 421.79 63.816H422.462C422.27 63.944 422.046 64.104 421.79 64.296C421.598 64.488 421.374 64.648 421.118 64.776H420.926C420.35 65.096 419.774 65.416 419.198 65.736C418.622 66.056 418.014 66.376 417.374 66.696H417.086C416.894 66.76 416.702 66.824 416.51 66.888C416.318 66.952 416.126 67.048 415.934 67.176C415.486 67.368 415.038 67.56 414.59 67.752C414.206 67.88 413.758 68.008 413.246 68.136H413.15C411.038 68.776 408.734 69.256 406.238 69.576H406.334C405.31 69.704 404.222 69.8 403.07 69.864C401.982 69.928 400.894 69.96 399.806 69.96C398.654 69.96 397.534 69.928 396.446 69.864C395.358 69.8 394.27 69.704 393.182 69.576C390.75 69.32 388.414 68.84 386.174 68.136H386.27C385.822 68.008 385.374 67.88 384.926 67.752C384.478 67.56 384.03 67.368 383.582 67.176H383.486C383.294 67.048 383.102 66.952 382.91 66.888C382.718 66.824 382.526 66.76 382.334 66.696H382.622C381.982 66.376 381.374 66.056 380.798 65.736C380.222 65.416 379.646 65.096 379.07 64.776H379.262L377.822 63.816H377.246C376.99 63.688 376.766 63.528 376.574 63.336C376.382 63.144 376.19 62.984 375.998 62.856H377.822L376.67 61.896H375.518C375.454 61.768 375.39 61.672 375.326 61.608C375.262 61.544 375.166 61.48 375.038 61.416H374.078C373.822 61.16 373.566 60.936 373.31 60.744C373.118 60.488 372.926 60.232 372.734 59.976H371.678L370.526 58.536H374.078L373.502 57.576H370.43C370.302 57.32 370.174 57.096 370.046 56.904C369.918 56.648 369.79 56.392 369.662 56.136H370.238C370.046 55.816 369.886 55.496 369.758 55.176H368.894C368.766 54.92 368.638 54.696 368.51 54.504C368.446 54.248 368.35 53.992 368.222 53.736H369.374L368.798 52.296H369.086C369.022 52.04 368.958 51.816 368.894 51.624C368.83 51.368 368.766 51.112 368.702 50.856H369.758C369.694 50.728 369.662 50.568 369.662 50.376H368.702C368.702 50.248 368.67 50.152 368.606 50.088C368.606 50.024 368.606 49.96 368.606 49.896H368.414C368.35 49.576 368.286 49.256 368.222 48.936C368.158 48.616 368.094 48.296 368.03 47.976H368.51C368.446 47.656 368.382 47.336 368.318 47.016C368.318 46.696 368.318 46.376 368.318 46.056H367.742L367.646 45.096H368.318V44.04C368.318 43.912 368.286 43.784 368.222 43.656C368.222 43.464 368.222 43.304 368.222 43.176H366.974C366.91 42.856 366.878 42.536 366.878 42.216C366.878 41.896 366.878 41.576 366.878 41.256H367.55V40.776H367.262V39.336H369.182V38.376H365.822V37.896H367.646V37.416H367.55V35.976H367.07V34.056H367.646V32.136H366.974V30.696H363.422V28.776H367.55C367.614 28.648 367.646 28.488 367.646 28.296H369.182V27.816H368.03V26.856H368.126L368.318 24.936H368.126C368.126 24.68 368.126 24.456 368.126 24.264C368.19 24.008 368.254 23.752 368.318 23.496H368.03C368.03 23.24 368.03 23.016 368.03 22.824C368.094 22.568 368.158 22.312 368.222 22.056H368.03C368.094 21.8 368.158 21.576 368.222 21.384C368.286 21.128 368.35 20.872 368.414 20.616H365.726C365.726 20.488 365.726 20.392 365.726 20.328C365.79 20.264 365.822 20.2 365.822 20.136H368.702L368.99 19.176H368.798L368.99 18.696H370.43C370.494 18.568 370.558 18.408 370.622 18.216C370.686 18.024 370.75 17.864 370.814 17.736H369.854C370.046 17.16 370.302 16.52 370.622 15.816H370.334C370.526 15.496 370.686 15.176 370.814 14.856C371.006 14.472 371.198 14.152 371.39 13.896H371.678L371.966 13.416H370.43L370.718 12.936H372.254L372.542 12.456H372.35L373.502 11.016H372.83L374.078 9.576C374.398 9.256 374.718 8.936 375.038 8.616C375.422 8.232 375.806 7.91199 376.19 7.65599H375.23L375.806 7.17599H374.75C374.878 7.048 374.974 6.952 375.038 6.888C375.166 6.824 375.294 6.76 375.422 6.696H377.822C378.078 6.568 378.334 6.408 378.59 6.216C378.846 6.024 379.102 5.864 379.358 5.736H379.646C380.286 5.416 380.926 5.096 381.566 4.776C382.206 4.392 382.846 4.072 383.486 3.816H383.774C385.054 3.24 386.462 2.76 387.998 2.376H388.478C390.334 1.864 392.286 1.48 394.334 1.224C396.382 0.967997 398.494 0.839996 400.67 0.839996C405.214 0.839996 409.246 1.352 412.766 2.376H412.19C412.894 2.568 413.598 2.792 414.302 3.048C415.006 3.24 415.678 3.496 416.318 3.816H415.934C416.638 4.072 417.278 4.392 417.854 4.776C418.494 5.096 419.134 5.416 419.774 5.736H419.39L420.83 6.696H418.43C418.558 6.76 418.654 6.824 418.718 6.888C418.846 6.952 418.974 7.048 419.102 7.17599H420.158C420.286 7.24 420.414 7.304 420.542 7.368C420.67 7.432 420.766 7.528 420.83 7.65599H421.79C422.174 7.91199 422.526 8.232 422.846 8.616C423.23 8.936 423.582 9.256 423.902 9.576H423.998C424.254 9.832 424.478 10.088 424.67 10.344C424.862 10.536 425.054 10.76 425.246 11.016H425.918L427.07 12.456H427.262C427.454 12.648 427.582 12.808 427.646 12.936H426.11L426.398 13.416H428.03L428.318 13.896H428.03C428.222 14.152 428.382 14.472 428.51 14.856C428.702 15.176 428.894 15.496 429.086 15.816H429.374L430.238 17.736H431.198L431.486 18.696H430.046L430.238 19.176H430.43L430.718 20.136H430.43C430.43 20.2 430.43 20.264 430.43 20.328C430.494 20.392 430.526 20.488 430.526 20.616H426.494C426.622 20.872 426.686 21.128 426.686 21.384C426.75 21.576 426.814 21.8 426.878 22.056H431.87C431.934 22.312 431.966 22.568 431.966 22.824C432.03 23.016 432.062 23.24 432.062 23.496H430.718C430.782 23.752 430.814 24.008 430.814 24.264C430.878 24.456 430.91 24.68 430.91 24.936H432.158L432.35 26.856H431.102V27.144C431.102 27.208 431.102 27.304 431.102 27.432C431.166 27.56 431.198 27.688 431.198 27.816H433.79V28.296H431.486C431.55 28.424 431.582 28.584 431.582 28.776H433.31C433.374 29.096 433.406 29.416 433.406 29.736C433.406 30.056 433.406 30.376 433.406 30.696H430.526V32.136ZM409.502 34.056H410.366V32.136H405.566V30.696H408.446C408.446 30.376 408.446 30.056 408.446 29.736C408.446 29.416 408.414 29.096 408.35 28.776H406.622C406.622 28.648 406.59 28.552 406.526 28.488C406.526 28.424 406.526 28.36 406.526 28.296H408.83V27.816H406.238C406.238 27.688 406.206 27.592 406.142 27.528C406.142 27.464 406.142 27.4 406.142 27.336V26.856H407.294C407.294 26.536 407.262 26.216 407.198 25.896C407.198 25.512 407.166 25.192 407.102 24.936H405.854C405.79 24.68 405.726 24.456 405.662 24.264C405.598 24.008 405.502 23.752 405.374 23.496H406.718C406.526 22.984 406.27 22.504 405.95 22.056H400.958C400.638 21.544 400.126 21.064 399.422 20.616H403.454C403.07 20.36 402.782 20.2 402.59 20.136H402.878C401.918 19.752 400.862 19.56 399.71 19.56C398.558 19.56 397.502 19.752 396.542 20.136H393.758C393.502 20.2 393.182 20.36 392.798 20.616H395.486C394.974 20.936 394.462 21.416 393.95 22.056H394.142C393.822 22.504 393.566 22.984 393.374 23.496H393.662C393.598 23.752 393.534 24.008 393.47 24.264C393.406 24.456 393.31 24.68 393.182 24.936H393.374C393.31 25.192 393.246 25.512 393.182 25.896C393.182 26.216 393.182 26.536 393.182 26.856H392.99V27.816H394.142V28.296H392.606V28.776H388.382V30.696H391.934V32.136H392.606V34.056H392.03V35.976H392.51V37.416H392.606C392.606 37.608 392.638 37.768 392.702 37.896H390.782V38.376H394.142V39.336H392.222V40.776H392.51V41.256H391.838C391.838 41.576 391.838 41.896 391.838 42.216C391.902 42.536 391.934 42.856 391.934 43.176H393.278V43.464C393.278 43.72 393.278 44.008 393.278 44.328C393.278 44.584 393.31 44.84 393.374 45.096H392.702C392.766 45.224 392.798 45.384 392.798 45.576C392.798 45.768 392.83 45.928 392.894 46.056H393.47C393.534 46.376 393.63 46.696 393.758 47.016C393.886 47.336 394.014 47.656 394.142 47.976H393.662C394.046 48.68 394.558 49.32 395.198 49.896H395.39C395.518 49.96 395.646 50.056 395.774 50.184C395.902 50.248 396.03 50.312 396.158 50.376H397.022C397.214 50.44 397.406 50.536 397.598 50.664C397.79 50.728 397.982 50.792 398.174 50.856H397.022C397.79 51.112 398.686 51.24 399.71 51.24C400.734 51.24 401.63 51.112 402.398 50.856H404.03C404.222 50.792 404.414 50.728 404.606 50.664C404.798 50.536 404.99 50.44 405.182 50.376H403.646C403.774 50.312 403.902 50.248 404.03 50.184C404.158 50.056 404.286 49.96 404.414 49.896H403.358C403.934 49.448 404.446 48.808 404.894 47.976H405.758C406.078 47.272 406.334 46.632 406.526 46.056H405.566C405.63 45.928 405.662 45.768 405.662 45.576C405.662 45.384 405.694 45.224 405.758 45.096H406.238C406.302 44.84 406.334 44.584 406.334 44.328C406.334 44.008 406.334 43.72 406.334 43.464V43.176H406.526C406.526 42.856 406.526 42.536 406.526 42.216C406.526 41.896 406.558 41.576 406.622 41.256H406.526V40.776H409.31V39.336H404.702V38.376H407.39V37.896H406.622V37.416H408.638V35.976H409.502V34.056Z" fill="#202020"/>
<path d="M501.2 25.896H500.144V27.336H502.352V27.816H501.488L501.2 29.736H502.256C502.192 29.864 502.16 30.024 502.16 30.216H500.816C500.752 30.536 500.688 30.856 500.624 31.176C500.56 31.496 500.464 31.816 500.336 32.136C500.336 32.392 500.272 32.712 500.144 33.096H499.184L498.608 34.536H498.512C498.448 34.856 498.32 35.176 498.128 35.496C497.936 35.816 497.776 36.136 497.648 36.456H497.84L497.552 36.936H498.416C498.224 37.256 498.032 37.576 497.84 37.896C497.648 38.216 497.424 38.536 497.168 38.856H497.84C497.584 39.176 497.296 39.496 496.976 39.816C496.72 40.136 496.432 40.456 496.112 40.776H495.92C495.536 41.096 495.152 41.416 494.768 41.736C494.448 42.056 494.064 42.376 493.616 42.696H493.04C492.528 43.016 491.984 43.336 491.408 43.656C490.896 43.976 490.352 44.296 489.776 44.616H490.064C489.936 44.68 489.776 44.744 489.584 44.808C489.392 44.872 489.232 44.968 489.104 45.096H489.008C487.792 45.672 486.448 46.152 484.976 46.536C484.272 46.728 483.536 46.92 482.768 47.112C482 47.24 481.232 47.368 480.464 47.496H480.368C477.808 47.88 475.088 48.072 472.208 48.072H465.488V48.936H466.16V50.856H467.312V51.336H465.008V52.296H465.872V53.736H463.472V54.216H466.448V56.136H465.584V58.536H465.968V59.976H464.816V61.896H464.336V62.856H467.504V64.296H464.816V66.216H466.64V66.408C466.64 66.728 466.608 66.984 466.544 67.176H465.968C465.968 67.24 465.904 67.4 465.776 67.656H466.064C466 67.784 465.872 67.944 465.68 68.136H465.776C465.52 68.392 465.328 68.552 465.2 68.616H465.296C464.976 68.872 464.528 69 463.952 69H444.176C443.6 69 443.152 68.872 442.832 68.616H442.64C442.512 68.552 442.32 68.392 442.064 68.136C442 68.008 441.936 67.912 441.872 67.848C441.808 67.784 441.776 67.72 441.776 67.656H441.488C441.36 67.4 441.296 67.24 441.296 67.176H441.776C441.712 66.984 441.68 66.728 441.68 66.408V66.216H439.856V64.296H442.544V62.856H439.376V61.896H439.856V59.976H441.008V58.536H440.624V56.136H441.488V54.216H438.512V53.736H440.912V52.296H440.048V51.336H442.352V50.856H441.2V48.936H440.528V47.496H440.624V44.616H440.432V42.696H441.008V40.776H441.296V38.856H440.624V36.936H439.76V36.456H439.568V34.536H439.664V33.096H440.624V30.216H440.336V29.736H440.048V27.816H441.104V27.336H440.72V25.896H441.104V24.936H441.008V23.976H438.32V22.056H427.664V20.616H432.56V18.696H441.296V17.736H437.648V15.816H435.44V14.376H436.88V13.896H434.864V11.976H442.256V11.496H441.296V10.056H439.088V8.616H436.016V6.696H442.928V5.256H439.568V4.776H438.896V4.296H440.624C440.624 4.04 440.688 3.72 440.816 3.336H439.76C439.824 3.144 439.92 2.984 440.048 2.856C440.176 2.664 440.304 2.504 440.432 2.376H446.288C446.8 1.992 447.344 1.8 447.92 1.8H477.008C479.824 1.8 482.416 1.992 484.784 2.376H479.024C479.792 2.504 480.528 2.664 481.232 2.856C482 2.984 482.704 3.144 483.344 3.336H484.496C485.008 3.464 485.488 3.624 485.936 3.816C486.448 3.944 486.928 4.104 487.376 4.296H485.648C485.84 4.36 486.032 4.424 486.224 4.488C486.416 4.552 486.608 4.648 486.8 4.776H487.376L488.432 5.256H491.888L494.384 6.696H487.376C487.888 6.952 488.336 7.272 488.72 7.65599C489.104 7.976 489.488 8.296 489.872 8.616H492.944L494.384 10.056H496.592C496.784 10.312 496.976 10.568 497.168 10.824C497.424 11.016 497.616 11.24 497.744 11.496H498.704C498.896 11.688 499.024 11.848 499.088 11.976H491.696C491.888 12.232 492.08 12.552 492.272 12.936C492.464 13.256 492.656 13.576 492.848 13.896H494.864L495.056 14.376H493.712L494.288 15.816H496.592L497.168 17.736H500.816L501.104 18.696H492.368C492.496 18.952 492.56 19.272 492.56 19.656C492.624 19.976 492.688 20.296 492.752 20.616H505.04C505.104 20.872 505.136 21.128 505.136 21.384C505.136 21.576 505.168 21.8 505.232 22.056H504.752C504.816 22.376 504.848 22.696 504.848 23.016C504.912 23.336 504.944 23.656 504.944 23.976H501.2V25.896ZM477.104 27.336H474.896L475.184 25.896H476.24V24.936C476.24 24.808 476.24 24.648 476.24 24.456C476.24 24.264 476.208 24.104 476.144 23.976H479.888C479.824 23.656 479.76 23.336 479.696 23.016C479.632 22.632 479.536 22.312 479.408 22.056H479.792C479.664 21.544 479.344 21.064 478.832 20.616H466.544C465.776 19.976 464.848 19.656 463.76 19.656H457.04V20.616H452.144V22.056H462.8V23.976H465.488V24.936H465.584V25.896H465.2V27.336H465.584V27.816H464.528V29.736H464.816V30.216H465.104V30.312H471.824C472.208 30.312 472.496 30.28 472.688 30.216H474.032C474.288 30.152 474.512 30.088 474.704 30.024C474.896 29.896 475.088 29.8 475.28 29.736H474.32C475.088 29.288 475.664 28.648 476.048 27.816H476.912C477.04 27.56 477.104 27.4 477.104 27.336Z" fill="#202020"/>
<path d="M544.983 18.216H529.335V20.136H535.575V22.056H543.831V23.496H534.519V23.976H535.671V25.896H533.271V26.376H533.079V26.856H530.679V28.776H535.191V29.256H535.383V29.736H534.327V31.176H533.655V31.656H536.823V33.576H529.143V35.496H531.927V36.936H533.463V38.856H533.655V40.776H532.887V43.176H533.751V44.136H533.175V45.576H533.079V46.056H532.311V47.976H533.175V48.936H533.079V54.696H533.175V56.616H534.807V58.536H533.463V59.496H533.079V60.456H534.231V62.376H532.599V62.856H534.999V63.816H535.863V64.296H535.095V65.736H534.711V66.408C534.711 66.536 534.679 66.664 534.615 66.792C534.615 66.92 534.583 67.048 534.519 67.176H532.119C532.055 67.496 531.863 67.816 531.543 68.136H534.231C533.975 68.392 533.783 68.552 533.655 68.616H528.183C527.863 68.872 527.415 69 526.839 69H507.255C506.679 69 506.231 68.872 505.911 68.616H511.383C511.127 68.552 510.935 68.392 510.807 68.136H508.119C507.799 67.816 507.607 67.496 507.543 67.176H510.039C509.975 66.984 509.943 66.728 509.943 66.408V65.736H510.327V64.296H511.095V63.816H510.231V62.856H507.831V62.376H509.463V60.456H508.311V59.496H508.695V58.536H510.039V56.616H508.407V54.696H508.311V48.936H508.407V47.976H507.543V46.056H508.311V45.576H508.407V44.136H508.983V43.176H508.119V40.776H508.887V38.856H508.695V36.936H507.159V35.496H504.375V33.576H512.055V31.656H508.887V31.176H509.559V29.736H510.615V29.256H510.423V28.776H505.911V26.856H508.311V26.376H508.503V25.896H510.903V23.976H509.751V23.496H519.063V22.056H510.807V20.136H504.567V18.216H520.215V17.736H510.423V16.296H510.327V14.856H508.599V14.376H514.455V13.416H510.039V11.496H510.423V10.056H507.735V8.136H508.215V7.17599H507.927V6.216H508.695V5.736H507.831V4.392C507.831 4.072 507.895 3.72 508.023 3.336H508.503C508.951 2.312 509.751 1.8 510.903 1.8H530.487C531.639 1.8 532.439 2.312 532.887 3.336H532.407C532.535 3.72 532.599 4.072 532.599 4.392V5.736H533.463V6.216H532.695V7.17599H532.983V8.136H532.503V10.056H535.191V11.496H534.807V13.416H539.223V14.376H533.367V14.856H535.095V16.296H535.191V17.736H544.983V18.216Z" fill="#202020"/>
<path d="M612.007 63.816L612.679 65.736H611.047L611.239 66.216C611.239 66.28 611.239 66.376 611.239 66.504C611.303 66.568 611.335 66.632 611.335 66.696H610.759V66.888C610.759 67.656 610.471 68.232 609.895 68.616H609.991C609.671 68.872 609.255 69 608.743 69H590.983C590.535 69 590.151 68.968 589.831 68.904C589.575 68.776 589.287 68.68 588.967 68.616C588.455 68.36 588.071 68.072 587.815 67.752C587.559 67.368 587.367 67.016 587.239 66.696H587.719V66.6L587.527 66.216L587.335 65.736H588.967L588.295 63.816H586.471L586.183 62.856H590.119L589.447 60.936H588.295L588.007 60.264H567.367L567.175 60.936H566.023L565.351 62.856H564.295L563.911 63.816H563.335L562.663 65.736H562.759L562.567 66.216L562.471 66.6L562.375 66.696H561.895C561.767 67.016 561.575 67.368 561.319 67.752C561.063 68.072 560.679 68.36 560.167 68.616H563.047C562.791 68.68 562.503 68.776 562.183 68.904C561.863 68.968 561.479 69 561.031 69H543.271C542.759 69 542.375 68.872 542.119 68.616H539.239C538.599 68.168 538.279 67.592 538.279 66.888V66.696H538.855C538.855 66.504 538.887 66.344 538.951 66.216L539.047 65.736H538.951L539.623 63.816H540.199L540.583 62.856H541.639L542.311 60.936H543.367L544.039 59.016H540.295L540.679 58.056H540.391L540.871 56.616H541.831L542.023 56.136H539.911L540.583 54.216H543.847L544.135 53.256H541.159L541.351 52.776H541.831L542.503 50.856H542.215L542.695 49.416H543.079L543.751 47.496H544.999L545.479 46.056L545.671 45.576H550.471L550.663 45.096H550.375L550.855 43.656H545.479L546.151 41.736H547.879L548.071 41.256H547.015L547.207 40.776H550.279L550.951 38.856H547.207L547.591 37.896H549.031L549.703 35.976H548.839L549.319 34.536H550.375L551.047 32.616H550.759L550.951 32.136H548.743L549.127 31.176H551.239L551.719 29.736H550.759L550.855 29.256H552.583L553.255 27.336H551.143L551.623 25.896H550.567L550.855 24.936H544.231L544.519 23.976H543.271L543.943 22.056H542.695L543.271 20.616H547.015L547.687 18.696H557.287L557.767 17.256H553.159L553.543 16.296H557.095L557.767 14.376H554.599L555.079 12.936H557.095L557.767 11.016H557.479L558.151 9.096H555.463L555.559 8.616H564.775L565.447 6.696H565.159L565.351 6.216H561.991L562.375 4.96799L562.663 4.296H563.623L564.199 3.336H563.911C564.231 2.888 564.679 2.536 565.255 2.27999C565.831 1.96 566.535 1.8 567.367 1.8H588.199C589.031 1.8 589.735 1.96 590.311 2.27999C590.887 2.536 591.335 2.888 591.655 3.336H592.039L592.615 4.296H591.655C591.783 4.552 591.847 4.776 591.847 4.96799L592.327 6.216H595.687L595.783 6.696H596.071L596.743 8.616H587.623L587.815 9.096H590.503L591.175 11.016H591.463L592.135 12.936H590.119L590.599 14.376H593.767L594.439 16.296H590.887L591.271 17.256H595.879L596.359 18.696H586.759L587.431 20.616H583.687L584.167 22.056H585.319L585.991 23.976H582.247L582.631 24.936H597.895L598.183 25.896H597.415L597.895 27.336H595.975L596.647 29.256H594.343L594.439 29.736H597.895L598.375 31.176H598.471L598.855 32.136H595.687L595.879 32.616H598.951L599.623 34.536H600.679L601.159 35.976H600.871L601.543 37.896H603.079L603.463 38.856H600.679L601.351 40.776H603.271L603.367 41.256H602.887L603.079 41.736H601.351L601.927 43.656H607.399L607.879 45.096H608.167L608.359 45.576H603.463L603.655 46.056H603.751L604.231 47.496H602.983L603.655 49.416H603.175L603.751 50.856H604.039L604.711 52.776H604.231L604.423 53.256H607.399L607.783 54.216H604.423L605.095 56.136H607.207L607.399 56.616H606.439L607.015 58.056H607.207L607.591 59.016H611.335L612.007 60.936H613.159L613.831 62.856H609.895L610.183 63.816H612.007ZM571.879 25.896H573.031L572.551 27.336H576.487L576.007 25.896H576.775L576.487 24.936H572.167L571.879 25.896ZM575.047 29.256L574.567 27.624L574.087 29.256H575.047ZM569.287 40.776L569.095 41.256H570.151L570.055 41.544H580.903L580.807 41.256H581.287L581.191 40.776H579.271L578.695 38.856H581.479L581.191 37.896H579.559L578.983 35.976H579.271L578.887 34.536H577.831L577.255 32.616H574.183L573.991 32.136H577.159L576.871 31.176H576.775L576.295 29.736H573.223L572.839 31.176H570.727L570.439 32.136H572.551L572.455 32.616H572.743L572.167 34.536H571.111L570.631 35.976H571.495L570.919 37.896H569.479L569.191 38.856H572.935L572.359 40.776H569.287Z" fill="#202020"/>
</svg>
